<!DOCTYPE svg PUBLIC "-//W3C//DTD SVG 20010904//EN" "http://www.w3.org/TR/2001/REC-SVG-20010904/DTD/svg10.dtd">
<svg version="1.0" xmlns="http://www.w3.org/2000/svg" width="485px" height="503px" viewBox="0 0 4850 5030" preserveAspectRatio="xMidYMid meet">
<g id="layer101" fill="#39393a" stroke="none">
<path d="M0 2515 l0 -2515 2425 0 2425 0 0 2515 0 2515 -2425 0 -2425 0 0 -2515z"/>
</g>
<g id="layer102" fill="#01519a" stroke="none">
<path d="M0 2515 l0 -2515 2425 0 2425 0 0 2515 0 2515 -2425 0 -2425 0 0 -2515z m1775 -265 c9 -27 110 -158 154 -198 48 -44 156 -122 169 -122 6 0 14 -5 17 -11 8 -12 -114 -259 -128 -259 -5 0 -5 6 1 13 6 7 16 26 22 41 10 27 9 28 -7 15 -15 -12 -16 -12 -10 4 4 11 1 17 -9 17 -11 0 -14 6 -9 23 4 15 3 18 -3 9 -7 -11 -14 -7 -31 17 -12 17 -29 31 -37 31 -8 0 -14 5 -14 11 0 6 -16 25 -35 42 -19 17 -35 37 -35 44 0 7 -7 13 -15 13 -8 0 -15 7 -15 15 0 8 -5 15 -10 15 -6 0 -15 11 -20 24 -5 13 -18 27 -29 31 -12 3 -21 10 -21 14 0 13 -67 81 -106 107 -20 14 -45 23 -56 21 -10 -3 -16 -1 -12 4 3 5 9 9 15 9 5 0 51 20 101 45 51 24 98 45 105 45 6 0 14 -9 18 -20z m-218 -107 c-4 -3 -7 0 -7 7 0 7 3 10 7 7 3 -4 3 -10 0 -14z m-100 -20 c-4 -3 -10 -3 -14 0 -3 4 0 7 7 7 7 0 10 -3 7 -7z"/>
</g>
<g id="layer103" fill="#525254" stroke="none">
<path d="M0 2515 l0 -2515 2425 0 2425 0 0 2515 0 2515 -2425 0 -2425 0 0 -2515z m1775 -265 c9 -27 110 -158 154 -198 48 -44 156 -122 169 -122 6 0 14 -5 17 -11 8 -12 -114 -259 -128 -259 -5 0 -5 6 1 13 6 7 16 26 22 41 10 27 9 28 -7 15 -15 -12 -16 -12 -10 4 4 11 1 17 -9 17 -11 0 -14 6 -9 23 4 15 3 18 -3 9 -7 -11 -14 -7 -31 17 -12 17 -29 31 -37 31 -8 0 -14 5 -14 11 0 6 -16 25 -35 42 -19 17 -35 37 -35 44 0 7 -7 13 -15 13 -8 0 -15 7 -15 15 0 8 -5 15 -10 15 -6 0 -15 11 -20 24 -5 13 -18 27 -29 31 -12 3 -21 10 -21 14 0 13 -67 81 -106 107 -20 14 -45 23 -56 21 -10 -3 -16 -1 -12 4 3 5 9 9 15 9 5 0 51 20 101 45 51 24 98 45 105 45 6 0 14 -9 18 -20z m-218 -107 c-4 -3 -7 0 -7 7 0 7 3 10 7 7 3 -4 3 -10 0 -14z m-100 -20 c-4 -3 -10 -3 -14 0 -3 4 0 7 7 7 7 0 10 -3 7 -7z m140 -1549 c-3 -3 -12 -4 -19 -1 -8 3 -5 6 6 6 11 1 17 -2 13 -5z m27 -67 c5 13 9 14 15 5 5 -8 39 -13 97 -15 49 -1 92 -6 97 -12 4 -7 10 -6 15 1 7 12 110 23 115 13 4 -11 357 -32 510 -31 89 1 147 -2 147 -8 0 -9 81 -13 218 -10 51 1 67 -3 78 -17 12 -16 13 -16 14 -1 0 9 -4 20 -10 23 -5 3 -10 12 -10 18 1 7 8 3 18 -9 10 -11 27 -23 39 -26 17 -4 23 0 27 18 4 13 4 36 1 52 -4 22 -4 24 4 7 5 -11 10 -31 10 -45 1 -14 9 -45 17 -70 9 -25 20 -58 25 -75 15 -57 38 -150 39 -156 0 -4 -17 -10 -37 -14 -21 -4 -58 -11 -83 -15 -165 -32 -271 -43 -455 -45 -269 -3 -461 23 -722 96 -104 29 -319 112 -337 129 -12 12 84 211 98 203 6 -4 7 1 2 13 -5 13 4 8 27 -14 30 -30 35 -31 41 -15z m-7 26 c-4 -3 -10 -3 -14 0 -3 4 0 7 7 7 7 0 10 -3 7 -7z m1350 -10 c-4 -3 -7 0 -7 7 0 7 3 10 7 7 3 -4 3 -10 0 -14z m18 -53 c3 -5 2 -10 -4 -10 -5 0 -13 5 -16 10 -3 6 -2 10 4 10 5 0 13 -4 16 -10z"/>
<path d="M1590 2170 c0 -7 3 -10 7 -7 3 4 3 10 0 14 -4 3 -7 0 -7 -7z"/>
</g>
<g id="layer104" fill="#ca171d" stroke="none">
<path d="M0 2515 l0 -2515 2425 0 2425 0 0 2515 0 2515 -2425 0 -2425 0 0 -2515z m1805 -313 c62 -96 194 -220 283 -266 17 -9 32 -21 32 -26 0 -8 -238 -492 -269 -546 -6 -11 -17 -36 -25 -56 -11 -28 -19 -36 -31 -32 -14 6 -14 8 2 19 16 12 13 30 -6 30 -3 0 -17 10 -31 23 -13 12 -28 22 -33 22 -5 0 -7 7 -3 15 3 10 -1 15 -14 15 -12 0 -21 10 -25 30 -4 17 -11 27 -16 24 -6 -3 -17 2 -24 12 -8 11 -15 15 -15 9 0 -5 -7 5 -15 23 -8 19 -24 36 -35 39 -11 3 -20 13 -20 22 0 9 -14 22 -30 30 -24 10 -29 17 -24 33 4 13 2 18 -4 14 -5 -3 -12 1 -16 9 -3 8 -11 15 -18 15 -8 0 -20 9 -28 21 -8 11 -23 30 -32 41 -10 11 -20 29 -23 39 -4 11 -11 19 -16 19 -6 0 -7 5 -3 12 5 7 3 8 -6 3 -8 -5 -17 -2 -24 7 -6 8 -19 17 -28 21 -10 3 -18 13 -18 21 0 7 -7 16 -15 20 -8 3 -15 12 -15 21 0 8 -4 15 -9 15 -5 0 -19 16 -32 35 -17 25 -34 37 -59 42 -19 3 -28 8 -20 10 8 3 65 28 125 57 61 30 148 71 194 92 46 22 132 62 190 90 90 44 107 50 116 37 6 -8 23 -36 40 -61z m-688 -239 c-4 -3 -10 -3 -14 0 -3 4 0 7 7 7 7 0 10 -3 7 -7z m12 -68 c0 -5 -4 -3 -9 5 -5 8 -9 22 -9 30 0 16 17 -16 18 -35z m76 35 c-3 -5 -10 -10 -16 -10 -5 0 -9 5 -9 10 0 6 7 10 16 10 8 0 12 -4 9 -10z m-30 -100 c3 -5 4 -10 1 -10 -3 0 -8 5 -11 10 -3 6 -4 10 -1 10 3 0 8 -4 11 -10z m135 -40 c0 -5 -5 -10 -11 -10 -5 0 -7 5 -4 10 3 6 8 10 11 10 2 0 4 -4 4 -10z m77 -247 c-4 -3 -7 0 -7 7 0 7 3 10 7 7 3 -4 3 -10 0 -14z m260 -160 c-4 -3 -7 0 -7 7 0 7 3 10 7 7 3 -4 3 -10 0 -14z m43 -57 c0 -3 -4 -8 -10 -11 -5 -3 -10 -1 -10 4 0 6 5 11 10 11 6 0 10 -2 10 -4z m85 -26 c-3 -5 -12 -10 -18 -10 -7 0 -6 4 3 10 19 12 23 12 15 0z m-178 -726 c-3 -3 -12 -4 -19 -1 -8 3 -5 6 6 6 11 1 17 -2 13 -5z m27 -67 c5 13 9 14 15 5 5 -8 39 -13 97 -15 49 -1 92 -6 97 -12 4 -7 10 -6 15 1 7 12 110 23 115 13 4 -11 357 -32 510 -31 89 1 147 -2 147 -8 0 -9 81 -13 218 -10 51 1 67 -3 78 -17 12 -16 13 -16 14 -1 0 9 -4 20 -10 23 -5 3 -10 12 -10 18 1 7 8 3 18 -9 10 -11 27 -23 39 -26 17 -4 23 0 27 18 4 13 4 36 1 52 -4 22 -4 24 4 7 5 -11 10 -31 10 -45 1 -14 9 -45 17 -70 9 -25 20 -58 25 -75 15 -57 38 -150 39 -156 0 -4 -17 -10 -37 -14 -21 -4 -58 -11 -83 -15 -165 -32 -271 -43 -455 -45 -269 -3 -461 23 -722 96 -104 29 -319 112 -337 129 -12 12 84 211 98 203 6 -4 7 1 2 13 -5 13 4 8 27 -14 30 -30 35 -31 41 -15z m-7 26 c-4 -3 -10 -3 -14 0 -3 4 0 7 7 7 7 0 10 -3 7 -7z m1350 -10 c-4 -3 -7 0 -7 7 0 7 3 10 7 7 3 -4 3 -10 0 -14z m18 -53 c3 -5 2 -10 -4 -10 -5 0 -13 5 -16 10 -3 6 -2 10 4 10 5 0 13 -4 16 -10z"/>
</g>
<g id="layer105" fill="#025ea4" stroke="none">
<path d="M0 2515 l0 -2515 2425 0 2425 0 0 2515 0 2515 -2425 0 -2425 0 0 -2515z m1124 2080 c6 -11 14 -22 17 -25 4 -3 41 -57 84 -120 43 -63 108 -158 144 -210 36 -52 79 -117 97 -145 18 -27 38 -57 46 -66 21 -26 38 -52 51 -81 6 -16 14 -28 18 -28 11 0 2 -71 -10 -83 -6 -6 -14 -7 -18 -3 -4 4 -1 11 7 16 12 7 13 15 3 40 -7 17 -9 39 -7 48 4 12 0 11 -14 -5 -11 -12 -22 -20 -24 -17 -8 7 -17 -48 -14 -78 2 -19 -3 -30 -20 -39 -13 -7 -24 -19 -24 -26 0 -7 -7 -16 -15 -19 -8 -4 -15 -12 -15 -20 0 -8 -4 -14 -10 -14 -5 0 -10 -10 -10 -23 0 -12 -8 -30 -17 -39 -29 -27 -42 -46 -37 -51 6 -5 -31 -47 -41 -47 -3 0 -5 9 -5 20 0 11 -5 20 -11 20 -8 0 -10 -17 -7 -50 3 -28 1 -53 -4 -56 -5 -3 -13 -17 -18 -30 -5 -13 -16 -24 -25 -24 -9 0 -18 -12 -21 -30 -5 -21 -12 -30 -25 -30 -12 0 -19 -7 -19 -20 0 -11 -4 -20 -8 -20 -20 0 -52 -39 -52 -62 0 -17 -8 -29 -25 -36 -15 -7 -25 -20 -25 -32 0 -11 -6 -20 -14 -20 -8 0 -18 -9 -21 -20 -5 -15 -12 -19 -31 -14 -27 7 -33 -11 -6 -19 9 -4 35 -13 57 -21 35 -14 41 -14 57 1 10 9 21 13 24 10 4 -4 -1 -9 -10 -13 -13 -5 -14 -9 -5 -20 6 -8 9 -14 6 -14 -7 0 -180 50 -197 57 -8 3 -23 5 -32 4 -10 -1 -18 2 -18 7 0 5 -6 9 -12 9 -20 -2 -92 15 -98 22 -3 4 -27 12 -55 18 -27 6 -66 16 -85 21 -192 54 -261 72 -268 70 -4 -1 -18 3 -32 9 -14 6 -51 16 -82 23 -32 7 -58 18 -58 23 0 6 18 65 41 131 42 127 161 375 232 486 93 145 281 373 369 448 9 8 37 34 63 58 26 24 52 44 56 44 5 0 14 9 21 20 7 11 17 20 21 20 8 0 56 35 82 60 15 14 36 8 49 -15z m415 -742 c-14 -26 -14 -26 -17 -4 -5 34 6 57 20 43 9 -9 8 -18 -3 -39z m81 18 c0 -4 17 -30 37 -56 22 -30 30 -46 20 -42 -12 5 -19 0 -23 -19 -5 -19 -9 -22 -20 -13 -18 15 -18 30 0 23 19 -7 27 32 10 47 -12 10 -13 8 -7 -7 6 -17 5 -17 -11 -5 -11 9 -13 17 -6 21 12 7 3 40 -11 40 -5 0 -9 5 -9 10 0 6 5 10 10 10 6 0 10 -4 10 -9z m-73 -57 c-3 -3 -12 -4 -19 -1 -8 3 -5 6 6 6 11 1 17 -2 13 -5z m144 -97 c-13 -13 -26 -3 -16 12 3 6 11 8 17 5 6 -4 6 -10 -1 -17z m77 -73 c-4 -3 -12 5 -18 18 -12 22 -12 22 6 6 10 -10 15 -20 12 -24z m-698 -483 c0 -12 -29 -35 -36 -28 -7 6 17 36 29 37 4 0 7 -4 7 -9z m55 -1 c3 -5 1 -10 -4 -10 -6 0 -11 5 -11 10 0 6 2 10 4 10 3 0 8 -4 11 -10z m112 -27 c-4 -3 -7 0 -7 7 0 7 3 10 7 7 3 -4 3 -10 0 -14z m-50 -10 c-4 -3 -10 -3 -14 0 -3 4 0 7 7 7 7 0 10 -3 7 -7z m-13 -38 c8 -8 21 -15 28 -16 8 0 9 -2 2 -5 -15 -6 -64 13 -64 26 0 15 16 12 34 -5z m123 -22 c-4 -3 -10 -3 -14 0 -3 4 0 7 7 7 7 0 10 -3 7 -7z m120 -10 c-4 -3 -10 -3 -14 0 -3 4 0 7 7 7 7 0 10 -3 7 -7z m-82 -13 c-3 -5 -10 -10 -16 -10 -5 0 -9 5 -9 10 0 6 7 10 16 10 8 0 12 -4 9 -10z m32 -17 c-4 -3 -10 -3 -14 0 -3 4 0 7 7 7 7 0 10 -3 7 -7z m438 -821 c62 -96 194 -220 283 -266 17 -9 32 -21 32 -26 0 -8 -238 -492 -269 -546 -6 -11 -17 -36 -25 -56 -11 -28 -19 -36 -31 -32 -14 6 -14 8 2 19 16 12 13 30 -6 30 -3 0 -17 10 -31 23 -13 12 -28 22 -33 22 -5 0 -7 7 -3 15 3 10 -1 15 -14 15 -12 0 -21 10 -25 30 -4 17 -11 27 -16 24 -6 -3 -17 2 -24 12 -8 11 -15 15 -15 9 0 -5 -7 5 -15 23 -8 19 -24 36 -35 39 -11 3 -20 13 -20 22 0 9 -14 22 -30 30 -24 10 -29 17 -24 33 4 13 2 18 -4 14 -5 -3 -12 1 -16 9 -3 8 -11 15 -18 15 -8 0 -20 9 -28 21 -8 11 -23 30 -32 41 -10 11 -20 29 -23 39 -4 11 -11 19 -16 19 -6 0 -7 5 -3 12 5 7 3 8 -6 3 -8 -5 -17 -2 -24 7 -6 8 -19 17 -28 21 -10 3 -18 13 -18 21 0 7 -7 16 -15 20 -8 3 -15 12 -15 21 0 8 -4 15 -9 15 -5 0 -19 16 -32 35 -17 25 -34 37 -59 42 -19 3 -28 8 -20 10 8 3 65 28 125 57 61 30 148 71 194 92 46 22 132 62 190 90 90 44 107 50 116 37 6 -8 23 -36 40 -61z m-688 -239 c-4 -3 -10 -3 -14 0 -3 4 0 7 7 7 7 0 10 -3 7 -7z m12 -68 c0 -5 -4 -3 -9 5 -5 8 -9 22 -9 30 0 16 17 -16 18 -35z m76 35 c-3 -5 -10 -10 -16 -10 -5 0 -9 5 -9 10 0 6 7 10 16 10 8 0 12 -4 9 -10z m-30 -100 c3 -5 4 -10 1 -10 -3 0 -8 5 -11 10 -3 6 -4 10 -1 10 3 0 8 -4 11 -10z m135 -40 c0 -5 -5 -10 -11 -10 -5 0 -7 5 -4 10 3 6 8 10 11 10 2 0 4 -4 4 -10z m77 -247 c-4 -3 -7 0 -7 7 0 7 3 10 7 7 3 -4 3 -10 0 -14z m260 -160 c-4 -3 -7 0 -7 7 0 7 3 10 7 7 3 -4 3 -10 0 -14z m43 -57 c0 -3 -4 -8 -10 -11 -5 -3 -10 -1 -10 4 0 6 5 11 10 11 6 0 10 -2 10 -4z m85 -26 c-3 -5 -12 -10 -18 -10 -7 0 -6 4 3 10 19 12 23 12 15 0z m-178 -726 c-3 -3 -12 -4 -19 -1 -8 3 -5 6 6 6 11 1 17 -2 13 -5z m27 -67 c5 13 9 14 15 5 5 -8 39 -13 97 -15 49 -1 92 -6 97 -12 4 -7 10 -6 15 1 7 12 110 23 115 13 4 -11 357 -32 510 -31 89 1 147 -2 147 -8 0 -9 81 -13 218 -10 51 1 67 -3 78 -17 12 -16 13 -16 14 -1 0 9 -4 20 -10 23 -5 3 -10 12 -10 18 1 7 8 3 18 -9 10 -11 27 -23 39 -26 17 -4 23 0 27 18 4 13 4 36 1 52 -4 22 -4 24 4 7 5 -11 10 -31 10 -45 1 -14 9 -45 17 -70 9 -25 20 -58 25 -75 15 -57 38 -150 39 -156 0 -4 -17 -10 -37 -14 -21 -4 -58 -11 -83 -15 -165 -32 -271 -43 -455 -45 -269 -3 -461 23 -722 96 -104 29 -319 112 -337 129 -12 12 84 211 98 203 6 -4 7 1 2 13 -5 13 4 8 27 -14 30 -30 35 -31 41 -15z m-7 26 c-4 -3 -10 -3 -14 0 -3 4 0 7 7 7 7 0 10 -3 7 -7z m1350 -10 c-4 -3 -7 0 -7 7 0 7 3 10 7 7 3 -4 3 -10 0 -14z m18 -53 c3 -5 2 -10 -4 -10 -5 0 -13 5 -16 10 -3 6 -2 10 4 10 5 0 13 -4 16 -10z"/>
<path d="M1550 500 c0 -5 7 -10 15 -10 8 0 15 5 15 10 0 6 -7 10 -15 10 -8 0 -15 -4 -15 -10z"/>
<path d="M1530 410 c0 -7 3 -10 7 -7 3 4 3 10 0 14 -4 3 -7 0 -7 -7z"/>
</g>
<g id="layer106" fill="#d81922" stroke="none">
<path d="M0 2515 l0 -2515 2425 0 2425 0 0 2515 0 2515 -2425 0 -2425 0 0 -2515z m1124 2080 c6 -11 14 -22 17 -25 4 -3 41 -57 84 -120 43 -63 108 -158 144 -210 36 -52 79 -117 97 -145 18 -27 38 -57 46 -66 21 -26 38 -52 51 -81 6 -16 14 -28 18 -28 11 0 2 -71 -10 -83 -6 -6 -14 -7 -18 -3 -4 4 -1 11 7 16 12 7 13 15 3 40 -7 17 -9 39 -7 48 4 12 0 11 -14 -5 -11 -12 -22 -20 -24 -17 -8 7 -17 -48 -14 -78 2 -19 -3 -30 -20 -39 -13 -7 -24 -19 -24 -26 0 -7 -7 -16 -15 -19 -8 -4 -15 -12 -15 -20 0 -8 -4 -14 -10 -14 -5 0 -10 -10 -10 -23 0 -12 -8 -30 -17 -39 -29 -27 -42 -46 -37 -51 6 -5 -31 -47 -41 -47 -3 0 -5 9 -5 20 0 11 -5 20 -11 20 -8 0 -10 -17 -7 -50 3 -28 1 -53 -4 -56 -5 -3 -13 -17 -18 -30 -5 -13 -16 -24 -25 -24 -9 0 -18 -12 -21 -30 -5 -21 -12 -30 -25 -30 -12 0 -19 -7 -19 -20 0 -11 -4 -20 -8 -20 -20 0 -52 -39 -52 -62 0 -17 -8 -29 -25 -36 -15 -7 -25 -20 -25 -32 0 -11 -6 -20 -14 -20 -8 0 -18 -9 -21 -20 -5 -15 -12 -19 -31 -14 -27 7 -33 -11 -6 -19 9 -4 35 -13 57 -21 35 -14 41 -14 57 1 10 9 21 13 24 10 4 -4 -1 -9 -10 -13 -13 -5 -14 -9 -5 -20 6 -8 9 -14 6 -14 -7 0 -180 50 -197 57 -8 3 -23 5 -32 4 -10 -1 -18 2 -18 7 0 5 -6 9 -12 9 -20 -2 -92 15 -98 22 -3 4 -27 12 -55 18 -27 6 -66 16 -85 21 -192 54 -261 72 -268 70 -4 -1 -18 3 -32 9 -14 6 -51 16 -82 23 -32 7 -58 18 -58 23 0 6 18 65 41 131 42 127 161 375 232 486 93 145 281 373 369 448 9 8 37 34 63 58 26 24 52 44 56 44 5 0 14 9 21 20 7 11 17 20 21 20 8 0 56 35 82 60 15 14 36 8 49 -15z m415 -742 c-14 -26 -14 -26 -17 -4 -5 34 6 57 20 43 9 -9 8 -18 -3 -39z m81 18 c0 -4 17 -30 37 -56 22 -30 30 -46 20 -42 -12 5 -19 0 -23 -19 -5 -19 -9 -22 -20 -13 -18 15 -18 30 0 23 19 -7 27 32 10 47 -12 10 -13 8 -7 -7 6 -17 5 -17 -11 -5 -11 9 -13 17 -6 21 12 7 3 40 -11 40 -5 0 -9 5 -9 10 0 6 5 10 10 10 6 0 10 -4 10 -9z m-73 -57 c-3 -3 -12 -4 -19 -1 -8 3 -5 6 6 6 11 1 17 -2 13 -5z m144 -97 c-13 -13 -26 -3 -16 12 3 6 11 8 17 5 6 -4 6 -10 -1 -17z m77 -73 c-4 -3 -12 5 -18 18 -12 22 -12 22 6 6 10 -10 15 -20 12 -24z m-698 -483 c0 -12 -29 -35 -36 -28 -7 6 17 36 29 37 4 0 7 -4 7 -9z m55 -1 c3 -5 1 -10 -4 -10 -6 0 -11 5 -11 10 0 6 2 10 4 10 3 0 8 -4 11 -10z m112 -27 c-4 -3 -7 0 -7 7 0 7 3 10 7 7 3 -4 3 -10 0 -14z m-50 -10 c-4 -3 -10 -3 -14 0 -3 4 0 7 7 7 7 0 10 -3 7 -7z m-13 -38 c8 -8 21 -15 28 -16 8 0 9 -2 2 -5 -15 -6 -64 13 -64 26 0 15 16 12 34 -5z m123 -22 c-4 -3 -10 -3 -14 0 -3 4 0 7 7 7 7 0 10 -3 7 -7z m120 -10 c-4 -3 -10 -3 -14 0 -3 4 0 7 7 7 7 0 10 -3 7 -7z m-82 -13 c-3 -5 -10 -10 -16 -10 -5 0 -9 5 -9 10 0 6 7 10 16 10 8 0 12 -4 9 -10z m32 -17 c-4 -3 -10 -3 -14 0 -3 4 0 7 7 7 7 0 10 -3 7 -7z m438 -821 c62 -96 194 -220 283 -266 17 -9 32 -21 32 -26 0 -8 -238 -492 -269 -546 -6 -11 -17 -36 -25 -56 -11 -28 -19 -36 -31 -32 -14 6 -14 8 2 19 16 12 13 30 -6 30 -3 0 -17 10 -31 23 -13 12 -28 22 -33 22 -5 0 -7 7 -3 15 3 10 -1 15 -14 15 -12 0 -21 10 -25 30 -4 17 -11 27 -16 24 -6 -3 -17 2 -24 12 -8 11 -15 15 -15 9 0 -5 -7 5 -15 23 -8 19 -24 36 -35 39 -11 3 -20 13 -20 22 0 9 -14 22 -30 30 -24 10 -29 17 -24 33 4 13 2 18 -4 14 -5 -3 -12 1 -16 9 -3 8 -11 15 -18 15 -8 0 -20 9 -28 21 -8 11 -23 30 -32 41 -10 11 -20 29 -23 39 -4 11 -11 19 -16 19 -6 0 -7 5 -3 12 5 7 3 8 -6 3 -8 -5 -17 -2 -24 7 -6 8 -19 17 -28 21 -10 3 -18 13 -18 21 0 7 -7 16 -15 20 -8 3 -15 12 -15 21 0 8 -4 15 -9 15 -5 0 -19 16 -32 35 -17 25 -34 37 -59 42 -19 3 -28 8 -20 10 8 3 65 28 125 57 61 30 148 71 194 92 46 22 132 62 190 90 90 44 107 50 116 37 6 -8 23 -36 40 -61z m-688 -239 c-4 -3 -10 -3 -14 0 -3 4 0 7 7 7 7 0 10 -3 7 -7z m12 -68 c0 -5 -4 -3 -9 5 -5 8 -9 22 -9 30 0 16 17 -16 18 -35z m76 35 c-3 -5 -10 -10 -16 -10 -5 0 -9 5 -9 10 0 6 7 10 16 10 8 0 12 -4 9 -10z m-30 -100 c3 -5 4 -10 1 -10 -3 0 -8 5 -11 10 -3 6 -4 10 -1 10 3 0 8 -4 11 -10z m135 -40 c0 -5 -5 -10 -11 -10 -5 0 -7 5 -4 10 3 6 8 10 11 10 2 0 4 -4 4 -10z m77 -247 c-4 -3 -7 0 -7 7 0 7 3 10 7 7 3 -4 3 -10 0 -14z m260 -160 c-4 -3 -7 0 -7 7 0 7 3 10 7 7 3 -4 3 -10 0 -14z m43 -57 c0 -3 -4 -8 -10 -11 -5 -3 -10 -1 -10 4 0 6 5 11 10 11 6 0 10 -2 10 -4z m85 -26 c-3 -5 -12 -10 -18 -10 -7 0 -6 4 3 10 19 12 23 12 15 0z m1122 -402 c-3 -8 -6 -5 -6 6 -1 11 2 17 5 13 3 -3 4 -12 1 -19z m-1180 -45 c-4 -3 -7 0 -7 7 0 7 3 10 7 7 3 -4 3 -10 0 -14z m-20 -20 c-4 -3 -7 0 -7 7 0 7 3 10 7 7 3 -4 3 -10 0 -14z m1220 -35 c-3 -7 -5 -2 -5 12 0 14 2 19 5 13 2 -7 2 -19 0 -25z m-1138 -8 c28 0 51 -5 51 -10 0 -7 19 -9 53 -5 29 3 44 2 34 -3 -10 -4 34 -6 100 -5 237 6 337 5 340 -4 2 -6 90 -8 213 -6 191 4 210 2 210 -13 0 -12 6 -15 23 -10 12 3 37 6 55 6 24 0 32 5 32 18 1 16 1 16 14 0 18 -24 26 -23 27 5 1 15 4 10 9 -13 8 -36 43 -166 80 -300 12 -41 25 -91 30 -110 4 -19 15 -61 24 -93 21 -77 21 -84 -11 -91 -204 -45 -304 -57 -523 -63 -279 -7 -484 20 -769 102 -109 31 -304 106 -323 124 -5 4 23 70 60 146 37 77 88 183 112 237 25 53 49 93 55 90 5 -3 4 -7 -3 -10 -14 -4 -16 -22 -3 -22 5 0 14 15 21 33 10 29 12 30 24 15 10 -13 27 -18 65 -18z"/>
<path d="M1290 4300 c0 -7 3 -10 7 -7 3 4 3 10 0 14 -4 3 -7 0 -7 -7z"/>
<path d="M1380 4160 c0 -7 3 -10 7 -7 3 4 3 10 0 14 -4 3 -7 0 -7 -7z"/>
<path d="M1400 4140 c0 -7 3 -10 7 -7 3 4 3 10 0 14 -4 3 -7 0 -7 -7z"/>
<path d="M1440 4089 c0 -5 5 -7 10 -4 6 3 10 8 10 11 0 2 -4 4 -10 4 -5 0 -10 -5 -10 -11z"/>
<path d="M1420 4060 c0 -7 3 -10 7 -7 3 4 3 10 0 14 -4 3 -7 0 -7 -7z"/>
<path d="M1452 4058 c-16 -16 -15 -33 1 -19 8 6 17 8 21 4 4 -4 4 0 0 10 -7 20 -7 20 -22 5z"/>
<path d="M1510 3966 c0 -9 7 -16 16 -16 9 0 14 5 12 12 -6 18 -28 21 -28 4z"/>
<path d="M875 3240 c-4 -6 3 -10 14 -10 25 0 27 6 6 13 -8 4 -17 2 -20 -3z"/>
<path d="M790 3210 c0 -5 7 -7 15 -4 8 4 15 8 15 10 0 2 -7 4 -15 4 -8 0 -15 -4 -15 -10z"/>
<path d="M845 3210 c3 -5 10 -10 16 -10 5 0 9 5 9 10 0 6 -7 10 -16 10 -8 0 -12 -4 -9 -10z"/>
<path d="M880 3195 c0 -2 9 -9 20 -15 16 -9 20 -8 20 5 0 8 -9 15 -20 15 -11 0 -20 -2 -20 -5z"/>
<path d="M825 3180 c3 -5 13 -10 21 -10 8 0 12 5 9 10 -3 6 -13 10 -21 10 -8 0 -12 -4 -9 -10z"/>
</g>
<g id="layer107" fill="#006eb2" stroke="none">
<path d="M0 2515 l0 -2515 2425 0 2425 0 0 2515 0 2515 -2425 0 -2425 0 0 -2515z m1170 2021 c25 -33 71 -99 102 -146 32 -47 78 -114 104 -150 26 -36 52 -74 58 -85 6 -11 36 -55 66 -99 30 -43 66 -96 80 -117 66 -102 205 -305 213 -310 10 -7 30 -41 46 -76 6 -13 15 -23 20 -23 5 0 11 -8 15 -17 7 -22 27 -54 42 -68 22 -20 76 -107 70 -112 -3 -4 -6 -1 -6 5 0 7 -4 12 -10 12 -5 0 -10 -11 -10 -25 0 -14 -4 -25 -10 -25 -5 0 -10 7 -10 15 0 7 -8 18 -17 23 -15 9 -15 11 2 28 17 17 17 17 11 -4 -8 -26 9 -30 18 -5 4 9 0 23 -9 32 -13 14 -16 13 -28 -3 -8 -11 -19 -16 -25 -12 -20 12 -13 -5 19 -45 22 -28 26 -39 15 -39 -8 0 -18 5 -21 10 -3 6 -11 10 -18 10 -8 0 -8 -3 1 -12 19 -19 14 -30 -10 -23 -20 5 -21 5 -5 -5 9 -6 26 -9 36 -5 31 9 20 -20 -28 -75 -37 -42 -45 -48 -61 -38 -10 7 -17 15 -15 18 2 3 -4 6 -13 6 -21 0 -26 -42 -6 -50 8 -3 14 1 14 9 0 17 16 20 25 5 3 -6 -1 -17 -9 -26 -9 -8 -16 -20 -16 -25 0 -6 -4 -7 -10 -4 -5 3 -10 -3 -10 -14 0 -14 -5 -19 -15 -15 -10 4 -15 0 -15 -11 0 -9 5 -13 10 -10 6 3 10 -1 10 -9 0 -20 -17 -30 -23 -14 -3 7 -6 0 -6 -15 -1 -18 -5 -26 -12 -21 -7 4 -9 0 -5 -13 4 -12 1 -25 -8 -32 -12 -10 -19 -8 -35 8 -13 13 -17 23 -9 27 6 4 15 -1 20 -10 5 -9 14 -16 20 -16 7 0 6 5 -2 15 -8 10 -9 19 -3 28 6 6 13 28 17 49 4 23 16 42 31 52 34 23 32 38 -3 20 -28 -13 -52 -65 -52 -109 0 -12 -6 -16 -20 -12 -11 3 -20 1 -20 -4 0 -5 -8 -9 -17 -9 -13 0 -11 -5 10 -18 15 -9 27 -19 27 -22 0 -4 -36 3 -79 14 -51 13 -76 24 -68 29 7 5 1 6 -15 3 -17 -4 -43 0 -65 11 -21 9 -47 17 -58 18 -11 1 -30 2 -43 3 -13 1 -20 7 -17 12 4 6 -6 10 -23 10 -16 0 -76 13 -133 30 -57 16 -114 30 -126 30 -12 0 -24 4 -28 9 -3 6 -13 10 -23 10 -9 0 -39 7 -67 16 -54 18 -114 35 -215 61 -36 9 -90 24 -120 34 -30 10 -73 21 -95 25 -22 4 -45 12 -52 17 -7 5 -16 7 -21 4 -5 -3 -21 2 -37 10 -15 8 -30 12 -32 10 -3 -2 -37 7 -76 20 -39 13 -79 24 -89 24 -10 0 -18 4 -18 9 0 9 41 128 60 176 4 11 14 36 20 55 23 63 132 284 168 340 131 204 205 299 343 440 78 79 200 189 227 204 9 5 37 25 61 44 41 31 46 33 56 17 5 -9 30 -45 55 -79z m830 -1223 c0 -3 -7 -15 -17 -25 -18 -20 -43 -24 -43 -7 0 6 7 9 15 5 8 -3 14 -2 14 2 -3 20 3 32 16 32 8 0 15 -3 15 -7z m-195 -1111 c62 -96 194 -220 283 -266 17 -9 32 -21 32 -26 0 -8 -238 -492 -269 -546 -6 -11 -17 -36 -25 -56 -11 -28 -19 -36 -31 -32 -14 6 -14 8 2 19 16 12 13 30 -6 30 -3 0 -17 10 -31 23 -13 12 -28 22 -33 22 -5 0 -7 7 -3 15 3 10 -1 15 -14 15 -12 0 -21 10 -25 30 -4 17 -11 27 -16 24 -6 -3 -17 2 -24 12 -8 11 -15 15 -15 9 0 -5 -7 5 -15 23 -8 19 -24 36 -35 39 -11 3 -20 13 -20 22 0 9 -14 22 -30 30 -24 10 -29 17 -24 33 4 13 2 18 -4 14 -5 -3 -12 1 -16 9 -3 8 -11 15 -18 15 -8 0 -20 9 -28 21 -8 11 -23 30 -32 41 -10 11 -20 29 -23 39 -4 11 -11 19 -16 19 -6 0 -7 5 -3 12 5 7 3 8 -6 3 -8 -5 -17 -2 -24 7 -6 8 -19 17 -28 21 -10 3 -18 13 -18 21 0 7 -7 16 -15 20 -8 3 -15 12 -15 21 0 8 -4 15 -9 15 -5 0 -19 16 -32 35 -17 25 -34 37 -59 42 -19 3 -28 8 -20 10 8 3 65 28 125 57 61 30 148 71 194 92 46 22 132 62 190 90 90 44 107 50 116 37 6 -8 23 -36 40 -61z m-688 -239 c-4 -3 -10 -3 -14 0 -3 4 0 7 7 7 7 0 10 -3 7 -7z m12 -68 c0 -5 -4 -3 -9 5 -5 8 -9 22 -9 30 0 16 17 -16 18 -35z m76 35 c-3 -5 -10 -10 -16 -10 -5 0 -9 5 -9 10 0 6 7 10 16 10 8 0 12 -4 9 -10z m-30 -100 c3 -5 4 -10 1 -10 -3 0 -8 5 -11 10 -3 6 -4 10 -1 10 3 0 8 -4 11 -10z m135 -40 c0 -5 -5 -10 -11 -10 -5 0 -7 5 -4 10 3 6 8 10 11 10 2 0 4 -4 4 -10z m77 -247 c-4 -3 -7 0 -7 7 0 7 3 10 7 7 3 -4 3 -10 0 -14z m260 -160 c-4 -3 -7 0 -7 7 0 7 3 10 7 7 3 -4 3 -10 0 -14z m43 -57 c0 -3 -4 -8 -10 -11 -5 -3 -10 -1 -10 4 0 6 5 11 10 11 6 0 10 -2 10 -4z m85 -26 c-3 -5 -12 -10 -18 -10 -7 0 -6 4 3 10 19 12 23 12 15 0z m1122 -402 c-3 -8 -6 -5 -6 6 -1 11 2 17 5 13 3 -3 4 -12 1 -19z m-1180 -45 c-4 -3 -7 0 -7 7 0 7 3 10 7 7 3 -4 3 -10 0 -14z m-20 -20 c-4 -3 -7 0 -7 7 0 7 3 10 7 7 3 -4 3 -10 0 -14z m1220 -35 c-3 -7 -5 -2 -5 12 0 14 2 19 5 13 2 -7 2 -19 0 -25z m-1138 -8 c28 0 51 -5 51 -10 0 -7 19 -9 53 -5 29 3 44 2 34 -3 -10 -4 34 -6 100 -5 237 6 337 5 340 -4 2 -6 90 -8 213 -6 191 4 210 2 210 -13 0 -12 6 -15 23 -10 12 3 37 6 55 6 24 0 32 5 32 18 1 16 1 16 14 0 18 -24 26 -23 27 5 1 15 4 10 9 -13 8 -36 43 -166 80 -300 12 -41 25 -91 30 -110 4 -19 15 -61 24 -93 21 -77 21 -84 -11 -91 -204 -45 -304 -57 -523 -63 -279 -7 -484 20 -769 102 -109 31 -304 106 -323 124 -5 4 23 70 60 146 37 77 88 183 112 237 25 53 49 93 55 90 5 -3 4 -7 -3 -10 -14 -4 -16 -22 -3 -22 5 0 14 15 21 33 10 29 12 30 24 15 10 -13 27 -18 65 -18z"/>
<path d="M1706 764 c-10 -25 1 -29 14 -5 6 12 7 21 1 21 -5 0 -12 -7 -15 -16z"/>
<path d="M1654 728 c-4 -7 -3 -8 4 -4 12 7 16 16 8 16 -3 0 -8 -5 -12 -12z"/>
</g>
<g id="layer108" fill="#ec1b23" stroke="none">
<path d="M0 2515 l0 -2515 2425 0 2425 0 0 2515 0 2515 -2425 0 -2425 0 0 -2515z m1170 2021 c25 -33 71 -99 102 -146 32 -47 78 -114 104 -150 26 -36 52 -74 58 -85 6 -11 36 -55 66 -99 30 -43 66 -96 80 -117 66 -102 205 -305 213 -310 10 -7 30 -41 46 -76 6 -13 15 -23 20 -23 5 0 11 -8 15 -17 7 -22 27 -54 42 -68 22 -20 76 -107 70 -112 -3 -4 -6 -1 -6 5 0 7 -4 12 -10 12 -5 0 -10 -11 -10 -25 0 -14 -4 -25 -10 -25 -5 0 -10 7 -10 15 0 7 -8 18 -17 23 -15 9 -15 11 2 28 17 17 17 17 11 -4 -8 -26 9 -30 18 -5 4 9 0 23 -9 32 -13 14 -16 13 -28 -3 -8 -11 -19 -16 -25 -12 -20 12 -13 -5 19 -45 22 -28 26 -39 15 -39 -8 0 -18 5 -21 10 -3 6 -11 10 -18 10 -8 0 -8 -3 1 -12 19 -19 14 -30 -10 -23 -20 5 -21 5 -5 -5 9 -6 26 -9 36 -5 31 9 20 -20 -28 -75 -37 -42 -45 -48 -61 -38 -10 7 -17 15 -15 18 2 3 -4 6 -13 6 -21 0 -26 -42 -6 -50 8 -3 14 1 14 9 0 17 16 20 25 5 3 -6 -1 -17 -9 -26 -9 -8 -16 -20 -16 -25 0 -6 -4 -7 -10 -4 -5 3 -10 -3 -10 -14 0 -14 -5 -19 -15 -15 -10 4 -15 0 -15 -11 0 -9 5 -13 10 -10 6 3 10 -1 10 -9 0 -20 -17 -30 -23 -14 -3 7 -6 0 -6 -15 -1 -18 -5 -26 -12 -21 -7 4 -9 0 -5 -13 4 -12 1 -25 -8 -32 -12 -10 -19 -8 -35 8 -13 13 -17 23 -9 27 6 4 15 -1 20 -10 5 -9 14 -16 20 -16 7 0 6 5 -2 15 -8 10 -9 19 -3 28 6 6 13 28 17 49 4 23 16 42 31 52 34 23 32 38 -3 20 -28 -13 -52 -65 -52 -109 0 -12 -6 -16 -20 -12 -11 3 -20 1 -20 -4 0 -5 -8 -9 -17 -9 -13 0 -11 -5 10 -18 15 -9 27 -19 27 -22 0 -4 -36 3 -79 14 -51 13 -76 24 -68 29 7 5 1 6 -15 3 -17 -4 -43 0 -65 11 -21 9 -47 17 -58 18 -11 1 -30 2 -43 3 -13 1 -20 7 -17 12 4 6 -6 10 -23 10 -16 0 -76 13 -133 30 -57 16 -114 30 -126 30 -12 0 -24 4 -28 9 -3 6 -13 10 -23 10 -9 0 -39 7 -67 16 -54 18 -114 35 -215 61 -36 9 -90 24 -120 34 -30 10 -73 21 -95 25 -22 4 -45 12 -52 17 -7 5 -16 7 -21 4 -5 -3 -21 2 -37 10 -15 8 -30 12 -32 10 -3 -2 -37 7 -76 20 -39 13 -79 24 -89 24 -10 0 -18 4 -18 9 0 9 41 128 60 176 4 11 14 36 20 55 23 63 132 284 168 340 131 204 205 299 343 440 78 79 200 189 227 204 9 5 37 25 61 44 41 31 46 33 56 17 5 -9 30 -45 55 -79z m830 -1223 c0 -3 -7 -15 -17 -25 -18 -20 -43 -24 -43 -7 0 6 7 9 15 5 8 -3 14 -2 14 2 -3 20 3 32 16 32 8 0 15 -3 15 -7z m-195 -1111 c62 -96 194 -220 283 -266 17 -9 32 -21 32 -26 0 -8 -238 -492 -269 -546 -6 -11 -17 -36 -25 -56 -11 -28 -19 -36 -31 -32 -14 6 -14 8 2 19 16 12 13 30 -6 30 -3 0 -17 10 -31 23 -13 12 -28 22 -33 22 -5 0 -7 7 -3 15 3 10 -1 15 -14 15 -12 0 -21 10 -25 30 -4 17 -11 27 -16 24 -6 -3 -17 2 -24 12 -8 11 -15 15 -15 9 0 -5 -7 5 -15 23 -8 19 -24 36 -35 39 -11 3 -20 13 -20 22 0 9 -14 22 -30 30 -24 10 -29 17 -24 33 4 13 2 18 -4 14 -5 -3 -12 1 -16 9 -3 8 -11 15 -18 15 -8 0 -20 9 -28 21 -8 11 -23 30 -32 41 -10 11 -20 29 -23 39 -4 11 -11 19 -16 19 -6 0 -7 5 -3 12 5 7 3 8 -6 3 -8 -5 -17 -2 -24 7 -6 8 -19 17 -28 21 -10 3 -18 13 -18 21 0 7 -7 16 -15 20 -8 3 -15 12 -15 21 0 8 -4 15 -9 15 -5 0 -19 16 -32 35 -17 25 -34 37 -59 42 -19 3 -28 8 -20 10 8 3 65 28 125 57 61 30 148 71 194 92 46 22 132 62 190 90 90 44 107 50 116 37 6 -8 23 -36 40 -61z m-688 -239 c-4 -3 -10 -3 -14 0 -3 4 0 7 7 7 7 0 10 -3 7 -7z m12 -68 c0 -5 -4 -3 -9 5 -5 8 -9 22 -9 30 0 16 17 -16 18 -35z m76 35 c-3 -5 -10 -10 -16 -10 -5 0 -9 5 -9 10 0 6 7 10 16 10 8 0 12 -4 9 -10z m-30 -100 c3 -5 4 -10 1 -10 -3 0 -8 5 -11 10 -3 6 -4 10 -1 10 3 0 8 -4 11 -10z m135 -40 c0 -5 -5 -10 -11 -10 -5 0 -7 5 -4 10 3 6 8 10 11 10 2 0 4 -4 4 -10z m77 -247 c-4 -3 -7 0 -7 7 0 7 3 10 7 7 3 -4 3 -10 0 -14z m260 -160 c-4 -3 -7 0 -7 7 0 7 3 10 7 7 3 -4 3 -10 0 -14z m43 -57 c0 -3 -4 -8 -10 -11 -5 -3 -10 -1 -10 4 0 6 5 11 10 11 6 0 10 -2 10 -4z m85 -26 c-3 -5 -12 -10 -18 -10 -7 0 -6 4 3 10 19 12 23 12 15 0z m112 -142 c-3 -8 -6 -5 -6 6 -1 11 2 17 5 13 3 -3 4 -12 1 -19z m940 5 c-4 -3 -7 0 -7 7 0 7 3 10 7 7 3 -4 3 -10 0 -14z m-996 -57 c-6 -14 -15 -26 -20 -26 -5 0 -3 14 6 31 18 36 28 33 14 -5z m39 13 c0 -5 -4 -9 -10 -9 -5 0 -10 7 -10 16 0 8 5 12 10 9 6 -3 10 -10 10 -16z m977 -41 c-3 -7 -5 -2 -5 12 0 14 2 19 5 13 2 -7 2 -19 0 -25z m-950 15 c-4 -3 -10 -3 -14 0 -3 4 0 7 7 7 7 0 10 -3 7 -7z m913 -3 c0 -5 -5 -10 -11 -10 -5 0 -7 5 -4 10 3 6 8 10 11 10 2 0 4 -4 4 -10z m-840 -20 c0 -5 7 -7 15 -4 8 4 23 3 33 -1 18 -7 111 -9 294 -6 65 2 123 -1 129 -5 7 -4 82 -6 167 -6 107 1 160 -2 169 -10 11 -9 19 -9 33 -1 27 17 57 5 64 -25 3 -15 17 -70 32 -122 14 -52 29 -111 34 -130 4 -19 29 -114 55 -210 112 -418 107 -385 68 -394 -209 -46 -299 -57 -511 -63 -283 -8 -495 19 -780 101 -111 32 -306 107 -325 125 -4 5 26 77 66 162 41 85 107 222 147 304 123 258 123 258 136 240 18 -24 27 -18 10 7 -9 12 -16 26 -16 30 0 4 30 9 68 11 37 2 77 4 90 5 12 1 22 -2 22 -8z"/>
<path d="M1780 3540 c0 -5 5 -10 11 -10 5 0 7 5 4 10 -3 6 -8 10 -11 10 -2 0 -4 -4 -4 -10z"/>
<path d="M1870 3450 c0 -7 3 -10 7 -7 3 4 3 10 0 14 -4 3 -7 0 -7 -7z"/>
<path d="M1890 3420 c0 -5 5 -10 10 -10 6 0 10 5 10 10 0 6 -4 10 -10 10 -5 0 -10 -4 -10 -10z"/>
<path d="M1860 3390 c0 -7 3 -10 7 -7 3 4 3 10 0 14 -4 3 -7 0 -7 -7z"/>
<path d="M1860 3328 c0 -17 2 -18 15 -8 8 7 15 14 15 15 0 2 -7 5 -15 9 -10 4 -15 -1 -15 -16z"/>
<path d="M1883 3233 c-7 -2 -13 -10 -13 -17 0 -15 -32 -17 -41 -3 -4 5 -9 5 -13 -2 -4 -6 -2 -11 3 -11 6 0 11 -7 11 -16 0 -13 3 -14 13 -5 8 6 16 9 18 7 2 -2 14 10 27 25 23 28 21 33 -5 22z"/>
<path d="M1765 3210 c-3 -5 -1 -10 4 -10 6 0 11 5 11 10 0 6 -2 10 -4 10 -3 0 -8 -4 -11 -10z"/>
<path d="M1690 3090 c0 -5 5 -10 10 -10 6 0 10 5 10 10 0 6 -4 10 -10 10 -5 0 -10 -4 -10 -10z"/>
<path d="M1670 3060 c0 -5 5 -10 10 -10 6 0 10 5 10 10 0 6 -4 10 -10 10 -5 0 -10 -4 -10 -10z"/>
<path d="M1443 3023 c4 -3 10 -3 14 0 3 4 0 7 -7 7 -7 0 -10 -3 -7 -7z"/>
<path d="M1671 3014 c0 -11 3 -14 6 -6 3 7 2 16 -1 19 -3 4 -6 -2 -5 -13z"/>
<path d="M1585 2980 c3 -5 13 -10 21 -10 8 0 14 5 14 10 0 6 -9 10 -21 10 -11 0 -17 -4 -14 -10z"/>
</g>
<g id="layer109" fill="#636465" stroke="none">
<path d="M0 2515 l0 -2515 2425 0 2425 0 0 2515 0 2515 -2425 0 -2425 0 0 -2515z m1141 2066 c19 -27 97 -141 175 -252 150 -217 318 -460 557 -807 l147 -213 -33 -29 c-17 -16 -35 -30 -39 -30 -21 -1 -144 -165 -183 -243 -25 -49 -47 -92 -50 -97 -3 -4 -26 -1 -52 7 -47 15 -356 102 -1003 282 -324 91 -472 133 -479 137 -5 4 36 126 81 239 119 300 294 561 544 810 89 89 275 243 295 244 4 1 22 -21 40 -48z m-406 -1475 c906 -246 949 -258 958 -266 4 -4 3 -29 -3 -56 -19 -84 -14 -229 10 -324 36 -137 36 -133 -2 -149 -18 -8 -75 -34 -126 -58 -51 -23 -95 -43 -97 -43 -2 0 -43 -18 -92 -41 -48 -22 -108 -50 -133 -61 -25 -11 -78 -36 -118 -54 -41 -19 -75 -34 -77 -34 -2 0 -43 -18 -90 -40 -47 -22 -88 -40 -90 -40 -2 0 -45 -20 -97 -45 -51 -25 -101 -45 -111 -45 -20 0 -39 39 -80 165 -113 343 -133 699 -60 1045 18 85 20 90 36 90 7 0 84 -20 172 -44z m1070 -904 c62 -96 194 -220 283 -266 17 -9 32 -21 32 -26 0 -8 -238 -492 -269 -546 -6 -11 -17 -36 -25 -56 -11 -28 -19 -36 -31 -32 -14 6 -14 8 2 19 16 12 13 30 -6 30 -3 0 -17 10 -31 23 -13 12 -28 22 -33 22 -5 0 -7 7 -3 15 3 10 -1 15 -14 15 -12 0 -21 10 -25 30 -4 17 -11 27 -16 24 -6 -3 -17 2 -24 12 -8 11 -15 15 -15 9 0 -5 -7 5 -15 23 -8 19 -24 36 -35 39 -11 3 -20 13 -20 22 0 9 -14 22 -30 30 -24 10 -29 17 -24 33 4 13 2 18 -4 14 -5 -3 -12 1 -16 9 -3 8 -11 15 -18 15 -8 0 -20 9 -28 21 -8 11 -23 30 -32 41 -10 11 -20 29 -23 39 -4 11 -11 19 -16 19 -6 0 -7 5 -3 12 5 7 3 8 -6 3 -8 -5 -17 -2 -24 7 -6 8 -19 17 -28 21 -10 3 -18 13 -18 21 0 7 -7 16 -15 20 -8 3 -15 12 -15 21 0 8 -4 15 -9 15 -5 0 -19 16 -32 35 -17 25 -34 37 -59 42 -19 3 -28 8 -20 10 8 3 65 28 125 57 61 30 148 71 194 92 46 22 132 62 190 90 90 44 107 50 116 37 6 -8 23 -36 40 -61z m-688 -239 c-4 -3 -10 -3 -14 0 -3 4 0 7 7 7 7 0 10 -3 7 -7z m12 -68 c0 -5 -4 -3 -9 5 -5 8 -9 22 -9 30 0 16 17 -16 18 -35z m76 35 c-3 -5 -10 -10 -16 -10 -5 0 -9 5 -9 10 0 6 7 10 16 10 8 0 12 -4 9 -10z m-30 -100 c3 -5 4 -10 1 -10 -3 0 -8 5 -11 10 -3 6 -4 10 -1 10 3 0 8 -4 11 -10z m135 -40 c0 -5 -5 -10 -11 -10 -5 0 -7 5 -4 10 3 6 8 10 11 10 2 0 4 -4 4 -10z m77 -247 c-4 -3 -7 0 -7 7 0 7 3 10 7 7 3 -4 3 -10 0 -14z m260 -160 c-4 -3 -7 0 -7 7 0 7 3 10 7 7 3 -4 3 -10 0 -14z m43 -57 c0 -3 -4 -8 -10 -11 -5 -3 -10 -1 -10 4 0 6 5 11 10 11 6 0 10 -2 10 -4z m85 -26 c-3 -5 -12 -10 -18 -10 -7 0 -6 4 3 10 19 12 23 12 15 0z m112 -142 c-3 -8 -6 -5 -6 6 -1 11 2 17 5 13 3 -3 4 -12 1 -19z m940 5 c-4 -3 -7 0 -7 7 0 7 3 10 7 7 3 -4 3 -10 0 -14z m-996 -57 c-6 -14 -15 -26 -20 -26 -5 0 -3 14 6 31 18 36 28 33 14 -5z m39 13 c0 -5 -4 -9 -10 -9 -5 0 -10 7 -10 16 0 8 5 12 10 9 6 -3 10 -10 10 -16z m977 -41 c-3 -7 -5 -2 -5 12 0 14 2 19 5 13 2 -7 2 -19 0 -25z m-950 15 c-4 -3 -10 -3 -14 0 -3 4 0 7 7 7 7 0 10 -3 7 -7z m913 -3 c0 -5 -5 -10 -11 -10 -5 0 -7 5 -4 10 3 6 8 10 11 10 2 0 4 -4 4 -10z m-840 -20 c0 -5 7 -7 15 -4 8 4 23 3 33 -1 18 -7 111 -9 294 -6 65 2 123 -1 129 -5 7 -4 82 -6 167 -6 107 1 160 -2 169 -10 11 -9 19 -9 33 -1 27 17 57 5 64 -25 3 -15 17 -70 32 -122 14 -52 29 -111 34 -130 4 -19 29 -114 55 -210 112 -418 107 -385 68 -394 -209 -46 -299 -57 -511 -63 -283 -8 -495 19 -780 101 -111 32 -306 107 -325 125 -4 5 26 77 66 162 41 85 107 222 147 304 123 258 123 258 136 240 18 -24 27 -18 10 7 -9 12 -16 26 -16 30 0 4 30 9 68 11 37 2 77 4 90 5 12 1 22 -2 22 -8z"/>
<path d="M1790 1360 c0 -5 5 -10 11 -10 5 0 7 5 4 10 -3 6 -8 10 -11 10 -2 0 -4 -4 -4 -10z"/>
</g>
<g id="layer110" fill="#2eb34a" stroke="none">
<path d="M0 2515 l0 -2515 2425 0 2425 0 0 2515 0 2515 -2425 0 -2425 0 0 -2515z m1141 2066 c19 -27 97 -141 175 -252 150 -217 318 -460 557 -807 l147 -213 -33 -29 c-17 -16 -35 -30 -39 -30 -21 -1 -144 -165 -183 -243 -25 -49 -47 -92 -50 -97 -3 -4 -26 -1 -52 7 -47 15 -356 102 -1003 282 -324 91 -472 133 -479 137 -5 4 36 126 81 239 119 301 299 569 546 812 90 89 274 241 293 242 4 1 22 -21 40 -48z m-406 -1475 c906 -246 949 -258 958 -266 4 -4 3 -29 -3 -56 -19 -84 -14 -229 10 -324 36 -137 36 -133 -2 -149 -18 -8 -75 -34 -126 -58 -51 -23 -95 -43 -97 -43 -2 0 -43 -18 -92 -41 -48 -22 -108 -50 -133 -61 -25 -11 -78 -36 -118 -54 -41 -19 -75 -34 -77 -34 -2 0 -43 -18 -90 -40 -47 -22 -88 -40 -90 -40 -2 0 -45 -20 -97 -45 -51 -25 -101 -45 -111 -45 -20 0 -39 39 -80 165 -113 343 -133 699 -60 1045 18 85 20 90 36 90 7 0 84 -20 172 -44z m1044 -852 c20 -44 120 -172 164 -210 37 -31 118 -87 171 -119 15 -9 -1 -48 -143 -338 -89 -180 -161 -332 -161 -337 0 -6 -2 -10 -5 -10 -26 0 -219 117 -283 172 -137 118 -164 144 -216 206 -77 93 -127 166 -181 266 l-46 84 58 27 c32 15 112 51 178 81 66 30 190 88 275 129 85 40 160 74 166 74 6 1 16 -11 23 -25z m108 -1096 c-3 -8 -6 -5 -6 6 -1 11 2 17 5 13 3 -3 4 -12 1 -19z m940 5 c-4 -3 -7 0 -7 7 0 7 3 10 7 7 3 -4 3 -10 0 -14z m-996 -57 c-6 -14 -15 -26 -20 -26 -5 0 -3 14 6 31 18 36 28 33 14 -5z m39 13 c0 -5 -4 -9 -10 -9 -5 0 -10 7 -10 16 0 8 5 12 10 9 6 -3 10 -10 10 -16z m977 -41 c-3 -7 -5 -2 -5 12 0 14 2 19 5 13 2 -7 2 -19 0 -25z m-950 15 c-4 -3 -10 -3 -14 0 -3 4 0 7 7 7 7 0 10 -3 7 -7z m913 -3 c0 -5 -5 -10 -11 -10 -5 0 -7 5 -4 10 3 6 8 10 11 10 2 0 4 -4 4 -10z m-840 -20 c0 -5 7 -7 15 -4 8 4 23 3 33 -1 18 -7 111 -9 294 -6 65 2 123 -1 129 -5 7 -4 82 -6 167 -6 107 1 160 -2 169 -10 11 -9 19 -9 33 -1 39 25 55 7 83 -100 15 -56 27 -108 27 -114 0 -7 4 -13 8 -13 4 0 9 -12 10 -27 3 -46 25 -123 34 -123 5 0 7 -4 4 -8 -5 -8 17 -108 31 -142 3 -8 5 -18 5 -23 -1 -4 7 -34 18 -67 11 -33 22 -68 24 -77 1 -10 6 -25 9 -33 4 -8 8 -26 10 -40 2 -14 6 -32 10 -40 16 -43 17 -70 2 -70 -23 0 -22 0 -62 -14 -21 -7 -44 -11 -50 -9 -7 3 -13 0 -13 -5 0 -5 -10 -10 -22 -10 -26 0 -101 -9 -108 -13 -38 -19 -417 -30 -550 -16 -41 5 -104 10 -140 13 -35 3 -67 8 -70 12 -3 4 -25 8 -49 9 -25 2 -49 7 -54 12 -5 5 -15 7 -22 5 -7 -3 -16 -1 -19 4 -3 6 -15 8 -26 5 -12 -3 -20 0 -20 6 0 7 -4 9 -10 6 -5 -3 -16 -3 -22 2 -7 4 -22 9 -33 10 -11 2 -27 6 -35 10 -8 3 -19 7 -25 9 -44 11 -171 56 -182 65 -7 6 -13 8 -13 4 0 -4 -16 2 -36 14 -19 12 -41 21 -48 21 -8 0 -19 7 -26 15 -11 13 -6 30 29 98 23 45 41 87 41 94 0 6 4 13 9 15 5 2 11 10 13 18 2 8 7 18 11 21 5 3 10 12 11 20 2 8 11 32 21 54 10 22 18 43 17 48 -1 4 3 7 9 7 5 0 7 5 4 10 -3 6 -1 10 5 10 6 0 9 4 6 9 -4 5 -3 11 1 13 11 4 66 118 66 135 0 7 3 13 6 13 4 0 24 36 46 81 33 67 41 78 51 65 18 -25 27 -19 10 6 -9 12 -16 26 -16 30 0 4 30 9 68 11 37 2 77 4 90 5 12 1 22 -2 22 -8z"/>
</g>
<g id="layer111" fill="#037abe" stroke="none">
<path d="M0 2515 l0 -2515 2425 0 2425 0 0 2515 0 2515 -2425 0 -2425 0 0 -2515z m1141 2066 c19 -27 97 -141 175 -252 150 -217 318 -460 557 -807 l147 -213 -33 -29 c-17 -16 -35 -30 -39 -30 -21 -1 -144 -165 -183 -243 -25 -49 -47 -92 -50 -97 -3 -4 -26 -1 -52 7 -47 15 -356 102 -1003 282 -324 91 -472 133 -479 137 -5 4 36 126 81 239 119 301 299 569 546 812 90 89 274 241 293 242 4 1 22 -21 40 -48z m-406 -1475 c906 -246 949 -258 958 -266 4 -4 3 -29 -3 -56 -19 -84 -14 -229 10 -324 36 -137 36 -133 -2 -149 -18 -8 -75 -34 -126 -58 -51 -23 -95 -43 -97 -43 -2 0 -43 -18 -92 -41 -48 -22 -108 -50 -133 -61 -25 -11 -78 -36 -118 -54 -41 -19 -75 -34 -77 -34 -2 0 -43 -18 -90 -40 -47 -22 -88 -40 -90 -40 -2 0 -45 -20 -97 -45 -51 -25 -101 -45 -111 -45 -20 0 -39 39 -80 165 -113 343 -133 699 -60 1045 18 85 20 90 36 90 7 0 84 -20 172 -44z m3762 -463 c-2 -16 -4 -5 -4 22 0 28 2 40 4 28 2 -13 2 -35 0 -50z m-3 -158 c-3 -33 -8 -67 -9 -75 -1 -8 -6 -40 -10 -70 -20 -156 -88 -386 -160 -538 -47 -98 -139 -257 -156 -268 -5 -3 -22 2 -37 12 -31 20 -252 183 -267 196 -12 11 46 -12 59 -24 22 -19 28 -6 7 16 -26 28 -10 48 18 22 24 -22 38 -20 19 2 -26 29 -25 44 1 73 44 48 56 63 56 74 1 5 6 9 13 8 6 -2 9 3 6 11 -6 16 42 76 62 76 8 0 14 10 14 26 0 14 4 23 10 19 6 -3 10 1 10 9 0 9 4 16 10 16 5 0 7 6 4 14 -3 8 3 16 15 19 12 3 21 13 21 24 0 10 16 35 36 56 19 20 32 37 28 37 -4 0 -1 6 8 13 9 6 18 21 20 32 2 11 7 19 12 17 8 -3 51 58 49 69 -2 5 17 25 65 69 13 12 22 32 22 50 0 24 4 30 18 28 11 -2 17 4 17 17 0 12 7 20 17 19 14 -1 16 5 12 30 -4 30 -4 30 6 6 7 -15 9 -48 4 -85z m-2715 -231 c20 -44 120 -172 164 -210 37 -31 118 -87 171 -119 15 -9 -1 -48 -143 -338 -89 -180 -161 -332 -161 -337 0 -6 -2 -10 -5 -10 -26 0 -219 117 -283 172 -137 118 -164 144 -216 206 -77 93 -127 166 -181 266 l-46 84 58 27 c32 15 112 51 178 81 66 30 190 88 275 129 85 40 160 74 166 74 6 1 16 -11 23 -25z m108 -1096 c-3 -8 -6 -5 -6 6 -1 11 2 17 5 13 3 -3 4 -12 1 -19z m940 5 c-4 -3 -7 0 -7 7 0 7 3 10 7 7 3 -4 3 -10 0 -14z m-996 -57 c-6 -14 -15 -26 -20 -26 -5 0 -3 14 6 31 18 36 28 33 14 -5z m39 13 c0 -5 -4 -9 -10 -9 -5 0 -10 7 -10 16 0 8 5 12 10 9 6 -3 10 -10 10 -16z m977 -41 c-3 -7 -5 -2 -5 12 0 14 2 19 5 13 2 -7 2 -19 0 -25z m-950 15 c-4 -3 -10 -3 -14 0 -3 4 0 7 7 7 7 0 10 -3 7 -7z m913 -3 c0 -5 -5 -10 -11 -10 -5 0 -7 5 -4 10 3 6 8 10 11 10 2 0 4 -4 4 -10z m-840 -20 c0 -5 7 -7 15 -4 8 4 23 3 33 -1 18 -7 111 -9 294 -6 65 2 123 -1 129 -5 7 -4 82 -6 167 -6 107 1 160 -2 169 -10 11 -9 19 -9 33 -1 39 25 55 7 83 -100 15 -56 27 -108 27 -114 0 -7 4 -13 8 -13 4 0 9 -12 10 -27 3 -46 25 -123 34 -123 5 0 7 -4 4 -8 -5 -8 17 -108 31 -142 3 -8 5 -18 5 -23 -1 -4 7 -34 18 -67 11 -33 22 -68 24 -77 1 -10 6 -25 9 -33 4 -8 8 -26 10 -40 2 -14 6 -32 10 -40 16 -43 17 -70 2 -70 -23 0 -22 0 -62 -14 -21 -7 -44 -11 -50 -9 -7 3 -13 0 -13 -5 0 -5 -10 -10 -22 -10 -26 0 -101 -9 -108 -13 -38 -19 -417 -30 -550 -16 -41 5 -104 10 -140 13 -35 3 -67 8 -70 12 -3 4 -25 8 -49 9 -25 2 -49 7 -54 12 -5 5 -15 7 -22 5 -7 -3 -16 -1 -19 4 -3 6 -15 8 -26 5 -12 -3 -20 0 -20 6 0 7 -4 9 -10 6 -5 -3 -16 -3 -22 2 -7 4 -22 9 -33 10 -11 2 -27 6 -35 10 -8 3 -19 7 -25 9 -44 11 -171 56 -182 65 -7 6 -13 8 -13 4 0 -4 -16 2 -36 14 -19 12 -41 21 -48 21 -8 0 -19 7 -26 15 -11 13 -6 30 29 98 23 45 41 87 41 94 0 6 4 13 9 15 5 2 11 10 13 18 2 8 7 18 11 21 5 3 10 12 11 20 2 8 11 32 21 54 10 22 18 43 17 48 -1 4 3 7 9 7 5 0 7 5 4 10 -3 6 -1 10 5 10 6 0 9 4 6 9 -4 5 -3 11 1 13 11 4 66 118 66 135 0 7 3 13 6 13 4 0 24 36 46 81 33 67 41 78 51 65 18 -25 27 -19 10 6 -9 12 -16 26 -16 30 0 4 30 9 68 11 37 2 77 4 90 5 12 1 22 -2 22 -8z"/>
</g>
<g id="layer112" fill="#50b948" stroke="none">
<path d="M0 2515 l0 -2515 2425 0 2425 0 0 2515 0 2515 -2425 0 -2425 0 0 -2515z m1141 2066 c19 -27 97 -141 175 -252 150 -217 318 -460 557 -807 l147 -213 -33 -29 c-17 -16 -35 -30 -39 -30 -21 -1 -144 -165 -183 -243 -25 -49 -47 -92 -50 -97 -3 -4 -26 -1 -52 7 -47 15 -356 102 -1003 282 -324 91 -472 133 -479 137 -5 4 36 126 81 239 119 301 299 569 546 812 90 89 274 241 293 242 4 1 22 -21 40 -48z m-406 -1475 c906 -246 949 -258 958 -266 4 -4 3 -29 -3 -56 -19 -84 -14 -229 10 -324 36 -137 36 -133 -2 -149 -18 -8 -75 -34 -126 -58 -51 -23 -95 -43 -97 -43 -2 0 -43 -18 -92 -41 -48 -22 -108 -50 -133 -61 -25 -11 -78 -36 -118 -54 -41 -19 -75 -34 -77 -34 -2 0 -43 -18 -90 -40 -47 -22 -88 -40 -90 -40 -2 0 -45 -20 -97 -45 -51 -25 -101 -45 -111 -45 -20 0 -39 39 -80 165 -113 343 -133 699 -60 1045 18 85 20 90 36 90 7 0 84 -20 172 -44z m3762 -463 c-2 -16 -4 -5 -4 22 0 28 2 40 4 28 2 -13 2 -35 0 -50z m-3 -158 c-3 -33 -8 -67 -9 -75 -1 -8 -6 -40 -10 -70 -20 -156 -88 -386 -160 -538 -47 -98 -139 -257 -156 -268 -5 -3 -22 2 -37 12 -31 20 -252 183 -267 196 -12 11 46 -12 59 -24 22 -19 28 -6 7 16 -26 28 -10 48 18 22 24 -22 38 -20 19 2 -26 29 -25 44 1 73 44 48 56 63 56 74 1 5 6 9 13 8 6 -2 9 3 6 11 -6 16 42 76 62 76 8 0 14 10 14 26 0 14 4 23 10 19 6 -3 10 1 10 9 0 9 4 16 10 16 5 0 7 6 4 14 -3 8 3 16 15 19 12 3 21 13 21 24 0 10 16 35 36 56 19 20 32 37 28 37 -4 0 -1 6 8 13 9 6 18 21 20 32 2 11 7 19 12 17 8 -3 51 58 49 69 -2 5 17 25 65 69 13 12 22 32 22 50 0 24 4 30 18 28 11 -2 17 4 17 17 0 12 7 20 17 19 14 -1 16 5 12 30 -4 30 -4 30 6 6 7 -15 9 -48 4 -85z m-2715 -231 c20 -44 120 -172 164 -210 37 -31 118 -87 171 -119 15 -9 -1 -48 -143 -338 -89 -180 -161 -332 -161 -337 0 -6 -2 -10 -5 -10 -26 0 -219 117 -283 172 -137 118 -164 144 -216 206 -77 93 -127 166 -181 266 l-46 84 58 27 c32 15 112 51 178 81 66 30 190 88 275 129 85 40 160 74 166 74 6 1 16 -11 23 -25z m232 -751 c-12 -20 -14 -14 -5 12 4 9 9 14 11 11 3 -2 0 -13 -6 -23z m56 -50 c-4 -3 -10 -3 -14 0 -3 4 0 7 7 7 7 0 10 -3 7 -7z m-69 -53 c8 -13 8 -20 1 -20 -5 0 -8 -4 -4 -10 3 -5 12 -7 20 -3 8 3 15 0 15 -6 0 -8 25 -9 85 -5 54 5 111 2 153 -5 46 -9 91 -10 145 -4 42 5 77 6 77 1 0 -4 9 -8 20 -8 11 0 20 5 20 10 0 14 27 13 32 -2 3 -8 36 -12 100 -12 l97 -1 8 30 c8 27 10 23 30 -55 12 -47 31 -119 43 -160 11 -41 34 -129 51 -195 17 -66 34 -129 39 -140 4 -11 14 -47 21 -80 7 -33 15 -64 19 -70 4 -5 10 -28 14 -51 3 -22 12 -63 20 -90 35 -121 47 -165 71 -258 13 -55 24 -101 22 -102 -7 -8 -174 -45 -262 -58 -150 -23 -380 -31 -525 -17 -211 20 -222 22 -320 42 -197 42 -550 167 -550 195 0 7 13 39 30 71 16 32 50 103 75 158 26 55 70 147 98 204 29 58 50 107 49 109 -2 3 0 8 5 11 5 3 30 53 57 111 84 180 122 251 131 243 4 -5 5 -3 2 4 -8 13 61 163 74 163 12 0 11 -14 -2 -27 -7 -7 -7 -13 0 -17 17 -11 35 33 20 50 -6 8 -7 14 -3 14 5 0 15 -9 22 -20z m362 -40 c0 -5 -9 -10 -21 -10 -11 0 -17 5 -14 10 3 6 13 10 21 10 8 0 14 -4 14 -10z"/>
</g>
<g id="layer113" fill="#018dcf" stroke="none">
<path d="M0 2515 l0 -2515 2425 0 2425 0 0 2515 0 2515 -2425 0 -2425 0 0 -2515z m1141 2066 c19 -27 97 -141 175 -252 150 -217 318 -460 557 -807 l147 -213 -33 -29 c-17 -16 -35 -30 -39 -30 -21 -1 -144 -165 -183 -243 -25 -49 -47 -92 -50 -97 -3 -4 -26 -1 -52 7 -47 15 -356 102 -1003 282 -324 91 -472 133 -479 137 -5 4 36 126 81 239 119 301 299 569 546 812 90 89 274 241 293 242 4 1 22 -21 40 -48z m-406 -1475 c906 -246 949 -258 958 -266 4 -4 3 -29 -3 -56 -19 -84 -14 -229 10 -324 36 -137 36 -133 -2 -149 -18 -8 -75 -34 -126 -58 -51 -23 -95 -43 -97 -43 -2 0 -43 -18 -92 -41 -48 -22 -108 -50 -133 -61 -25 -11 -78 -36 -118 -54 -41 -19 -75 -34 -77 -34 -2 0 -43 -18 -90 -40 -47 -22 -88 -40 -90 -40 -2 0 -45 -20 -97 -45 -51 -25 -101 -45 -111 -45 -20 0 -39 39 -80 165 -113 343 -133 699 -60 1045 18 85 20 90 36 90 7 0 84 -20 172 -44z m3766 -383 c3 -329 -31 -529 -135 -807 -20 -53 -48 -121 -62 -149 -28 -57 -144 -247 -149 -247 -5 0 -283 203 -379 277 -38 29 -73 53 -78 53 -4 0 -8 9 -8 21 0 11 3 18 8 16 4 -3 7 11 8 31 0 20 7 38 14 40 7 3 20 13 29 24 9 11 26 32 38 46 13 15 23 33 23 40 0 6 7 12 15 12 8 0 15 6 15 13 0 7 13 28 29 47 15 19 37 53 49 75 11 22 32 51 46 64 14 14 26 30 26 37 0 7 6 19 13 26 6 7 21 29 31 48 11 19 35 52 55 72 20 21 34 40 31 43 -3 2 2 10 11 17 9 7 33 36 55 63 21 28 42 52 47 53 4 2 7 11 7 20 0 9 10 26 23 37 13 11 26 28 30 37 3 9 16 18 29 21 13 2 -2 5 -32 7 l-55 3 50 8 c41 8 94 15 203 28 9 1 12 -21 13 -76z m-2722 -469 c20 -44 120 -172 164 -210 37 -31 118 -87 171 -119 15 -9 -1 -48 -143 -338 -89 -180 -161 -332 -161 -337 0 -6 -2 -10 -5 -10 -26 0 -219 117 -283 172 -137 118 -164 144 -216 206 -77 93 -127 166 -181 266 l-46 84 58 27 c32 15 112 51 178 81 66 30 190 88 275 129 85 40 160 74 166 74 6 1 16 -11 23 -25z m1891 -360 c0 -7 -6 -11 -13 -8 -8 3 -14 11 -14 18 0 8 6 12 14 9 7 -3 13 -11 13 -19z m-1659 -391 c-12 -20 -14 -14 -5 12 4 9 9 14 11 11 3 -2 0 -13 -6 -23z m56 -50 c-4 -3 -10 -3 -14 0 -3 4 0 7 7 7 7 0 10 -3 7 -7z m-69 -53 c8 -13 8 -20 1 -20 -5 0 -8 -4 -4 -10 3 -5 12 -7 20 -3 8 3 15 0 15 -6 0 -8 25 -9 85 -5 54 5 111 2 153 -5 46 -9 91 -10 145 -4 42 5 77 6 77 1 0 -4 9 -8 20 -8 11 0 20 5 20 10 0 14 27 13 32 -2 3 -8 36 -12 100 -12 l97 -1 8 30 c8 27 10 23 30 -55 12 -47 31 -119 43 -160 11 -41 34 -129 51 -195 17 -66 34 -129 39 -140 4 -11 14 -47 21 -80 7 -33 15 -64 19 -70 4 -5 10 -28 14 -51 3 -22 12 -63 20 -90 35 -121 47 -165 71 -258 13 -55 24 -101 22 -102 -7 -8 -174 -45 -262 -58 -150 -23 -380 -31 -525 -17 -211 20 -222 22 -320 42 -197 42 -550 167 -550 195 0 7 13 39 30 71 16 32 50 103 75 158 26 55 70 147 98 204 29 58 50 107 49 109 -2 3 0 8 5 11 5 3 30 53 57 111 84 180 122 251 131 243 4 -5 5 -3 2 4 -8 13 61 163 74 163 12 0 11 -14 -2 -27 -7 -7 -7 -13 0 -17 17 -11 35 33 20 50 -6 8 -7 14 -3 14 5 0 15 -9 22 -20z m362 -40 c0 -5 -9 -10 -21 -10 -11 0 -17 5 -14 10 3 6 13 10 21 10 8 0 14 -4 14 -10z"/>
<path d="M1936 1345 c-9 -26 -7 -32 5 -12 6 10 9 21 6 23 -2 3 -7 -2 -11 -11z"/>
<path d="M1980 1341 c0 -6 4 -13 10 -16 6 -3 7 1 4 9 -7 18 -14 21 -14 7z"/>
<path d="M2771 1314 c0 -11 3 -14 6 -6 3 7 2 16 -1 19 -3 4 -6 -2 -5 -13z"/>
</g>
<g id="layer114" fill="#71bf43" stroke="none">
<path d="M0 2515 l0 -2515 2425 0 2425 0 0 2515 0 2515 -2425 0 -2425 0 0 -2515z m1141 2066 c19 -27 97 -141 175 -252 150 -217 318 -460 557 -807 l147 -213 -33 -29 c-17 -16 -35 -30 -39 -30 -21 -1 -144 -165 -183 -243 -25 -49 -47 -92 -50 -97 -3 -4 -26 -1 -52 7 -47 15 -356 102 -1003 282 -324 91 -472 133 -479 137 -5 4 36 126 81 239 119 301 299 569 546 812 90 89 274 241 293 242 4 1 22 -21 40 -48z m-406 -1475 c906 -246 949 -258 958 -266 4 -4 3 -29 -3 -56 -19 -84 -14 -229 10 -324 36 -137 36 -133 -2 -149 -18 -8 -75 -34 -126 -58 -51 -23 -95 -43 -97 -43 -2 0 -43 -18 -92 -41 -48 -22 -108 -50 -133 -61 -25 -11 -78 -36 -118 -54 -41 -19 -75 -34 -77 -34 -2 0 -43 -18 -90 -40 -47 -22 -88 -40 -90 -40 -2 0 -45 -20 -97 -45 -51 -25 -101 -45 -111 -45 -20 0 -39 39 -80 165 -113 343 -133 699 -60 1045 18 85 20 90 36 90 7 0 84 -20 172 -44z m3766 -383 c3 -329 -31 -529 -135 -807 -20 -53 -48 -121 -62 -149 -28 -57 -144 -247 -149 -247 -5 0 -283 203 -379 277 -38 29 -73 53 -78 53 -4 0 -8 9 -8 21 0 11 3 18 8 16 4 -3 7 11 8 31 0 20 7 38 14 40 7 3 20 13 29 24 9 11 26 32 38 46 13 15 23 33 23 40 0 6 7 12 15 12 8 0 15 6 15 13 0 7 13 28 29 47 15 19 37 53 49 75 11 22 32 51 46 64 14 14 26 30 26 37 0 7 6 19 13 26 6 7 21 29 31 48 11 19 35 52 55 72 20 21 34 40 31 43 -3 2 2 10 11 17 9 7 33 36 55 63 21 28 42 52 47 53 4 2 7 11 7 20 0 9 10 26 23 37 13 11 26 28 30 37 3 9 16 18 29 21 13 2 -2 5 -32 7 l-55 3 50 8 c41 8 94 15 203 28 9 1 12 -21 13 -76z m-2722 -469 c20 -44 120 -172 164 -210 37 -31 118 -87 171 -119 15 -9 -1 -48 -143 -338 -89 -180 -161 -332 -161 -337 0 -6 -2 -10 -5 -10 -26 0 -219 117 -283 172 -137 118 -164 144 -216 206 -77 93 -127 166 -181 266 l-46 84 58 27 c32 15 112 51 178 81 66 30 190 88 275 129 85 40 160 74 166 74 6 1 16 -11 23 -25z m1891 -360 c0 -7 -6 -11 -13 -8 -8 3 -14 11 -14 18 0 8 6 12 14 9 7 -3 13 -11 13 -19z m-1455 -44 c10 -16 45 -32 45 -21 0 5 -8 12 -17 15 -19 6 11 1 92 -15 81 -15 248 -21 277 -10 22 8 29 7 38 -7 11 -16 11 -16 6 1 -3 9 -2 17 3 17 5 0 11 -15 15 -32 3 -18 13 -58 22 -88 8 -30 24 -86 34 -125 38 -147 79 -303 100 -380 19 -72 46 -173 115 -440 13 -49 42 -162 65 -250 76 -294 90 -349 87 -351 -7 -8 -174 -45 -262 -58 -206 -32 -386 -32 -700 0 -54 6 -238 45 -320 68 -155 44 -375 133 -375 151 0 10 100 225 275 590 31 66 74 156 95 200 177 376 351 729 362 736 6 4 7 12 3 19 -6 9 -3 9 13 1 12 -6 24 -16 27 -21z"/>
<path d="M3725 1941 c-3 -5 0 -13 6 -17 7 -4 9 -3 5 4 -3 5 0 13 6 15 9 4 10 6 1 6 -6 1 -14 -3 -18 -8z"/>
</g>
<g id="layer115" fill="#01adef" stroke="none">
<path d="M0 2515 l0 -2515 2425 0 2425 0 0 2515 0 2515 -2425 0 -2425 0 0 -2515z m1141 2066 c19 -27 97 -141 175 -252 150 -217 318 -460 557 -807 l147 -213 -33 -29 c-17 -16 -35 -30 -39 -30 -21 -1 -144 -165 -183 -243 -25 -49 -47 -92 -50 -97 -3 -4 -26 -1 -52 7 -47 15 -356 102 -1003 282 -324 91 -472 133 -479 137 -5 4 36 126 81 239 119 301 299 569 546 812 90 89 274 241 293 242 4 1 22 -21 40 -48z m-406 -1475 c906 -246 949 -258 958 -266 4 -4 3 -29 -3 -56 -19 -84 -14 -229 10 -324 36 -137 36 -133 -2 -149 -18 -8 -75 -34 -126 -58 -51 -23 -95 -43 -97 -43 -2 0 -43 -18 -92 -41 -48 -22 -108 -50 -133 -61 -25 -11 -78 -36 -118 -54 -41 -19 -75 -34 -77 -34 -2 0 -43 -18 -90 -40 -47 -22 -88 -40 -90 -40 -2 0 -45 -20 -97 -45 -51 -25 -101 -45 -111 -45 -20 0 -39 39 -80 165 -113 343 -133 699 -60 1045 18 85 20 90 36 90 7 0 84 -20 172 -44z m3768 -383 c4 -43 3 -139 -3 -213 -18 -275 -97 -554 -220 -787 -45 -85 -119 -203 -126 -203 -4 0 -300 213 -542 391 -101 74 -217 159 -259 189 -52 37 -77 63 -80 79 -3 20 -1 22 12 11 9 -7 19 -10 22 -6 4 4 1 11 -7 16 -11 7 -12 11 0 25 10 13 15 13 21 3 6 -9 9 -5 9 12 0 19 2 22 10 10 7 -11 11 -9 20 14 6 16 24 41 41 57 16 15 32 39 35 53 2 13 24 44 48 69 24 25 50 59 57 76 8 17 20 31 26 31 7 0 13 9 13 20 0 10 8 23 17 29 10 5 15 12 11 16 -3 3 12 25 34 47 l40 40 -36 -4 c-20 -2 -36 -1 -36 3 0 4 39 10 88 13 48 4 103 11 122 16 19 5 118 17 220 26 102 8 230 21 285 28 55 8 116 14 136 15 l36 1 6 -77z m-1156 -310 c-4 -3 -7 0 -7 7 0 7 3 10 7 7 3 -4 3 -10 0 -14z m70 -40 c-4 -3 -10 -3 -14 0 -3 4 0 7 7 7 7 0 10 -3 7 -7z m-107 -73 c0 -5 -5 -10 -11 -10 -5 0 -7 5 -4 10 3 6 8 10 11 10 2 0 4 -4 4 -10z m-1531 -46 c20 -44 120 -172 164 -210 37 -31 118 -87 171 -119 15 -9 -1 -48 -143 -338 -89 -180 -161 -332 -161 -337 0 -6 -2 -10 -5 -10 -26 0 -219 117 -283 172 -137 118 -164 144 -216 206 -77 93 -127 166 -181 266 l-46 84 58 27 c32 15 112 51 178 81 66 30 190 88 275 129 85 40 160 74 166 74 6 1 16 -11 23 -25z m1486 -74 c3 -5 2 -10 -4 -10 -5 0 -13 5 -16 10 -3 6 -2 10 4 10 5 0 13 -4 16 -10z m-1050 -330 c10 -16 45 -32 45 -21 0 5 -8 12 -17 15 -19 6 11 1 92 -15 81 -15 248 -21 277 -10 22 8 29 7 38 -7 11 -16 11 -16 6 1 -3 9 -2 17 3 17 5 0 11 -15 15 -32 3 -18 13 -58 22 -88 8 -30 24 -86 34 -125 38 -147 79 -303 100 -380 19 -72 46 -173 115 -440 13 -49 42 -162 65 -250 76 -294 90 -349 87 -351 -7 -8 -174 -45 -262 -58 -206 -32 -386 -32 -700 0 -54 6 -238 45 -320 68 -155 44 -375 133 -375 151 0 10 100 225 275 590 31 66 74 156 95 200 177 376 351 729 362 736 6 4 7 12 3 19 -6 9 -3 9 13 1 12 -6 24 -16 27 -21z"/>
<path d="M2178 1818 c9 -9 15 -9 24 0 9 9 7 12 -12 12 -19 0 -21 -3 -12 -12z"/>
<path d="M2170 1790 c0 -7 3 -10 7 -7 3 4 3 10 0 14 -4 3 -7 0 -7 -7z"/>
<path d="M2620 1790 c0 -7 3 -10 7 -7 3 4 3 10 0 14 -4 3 -7 0 -7 -7z"/>
<path d="M2333 1783 c4 -3 10 -3 14 0 3 4 0 7 -7 7 -7 0 -10 -3 -7 -7z"/>
<path d="M2403 1783 c4 -3 10 -3 14 0 3 4 0 7 -7 7 -7 0 -10 -3 -7 -7z"/>
</g>
<g id="layer116" fill="#99c746" stroke="none">
<path d="M0 2515 l0 -2515 2425 0 2425 0 0 2515 0 2515 -2425 0 -2425 0 0 -2515z m1141 2066 c19 -27 97 -141 175 -252 150 -217 318 -460 557 -807 l147 -213 -33 -29 c-17 -16 -35 -30 -39 -30 -21 -1 -144 -165 -183 -243 -25 -49 -47 -92 -50 -97 -3 -4 -26 -1 -52 7 -47 15 -356 102 -1003 282 -324 91 -472 133 -479 137 -5 4 36 126 81 239 119 301 299 569 546 812 90 89 274 241 293 242 4 1 22 -21 40 -48z m-406 -1475 c906 -246 949 -258 958 -266 4 -4 3 -29 -3 -56 -19 -84 -14 -229 10 -324 36 -137 36 -133 -2 -149 -18 -8 -75 -34 -126 -58 -51 -23 -95 -43 -97 -43 -2 0 -43 -18 -92 -41 -48 -22 -108 -50 -133 -61 -25 -11 -78 -36 -118 -54 -41 -19 -75 -34 -77 -34 -2 0 -43 -18 -90 -40 -47 -22 -88 -40 -90 -40 -2 0 -45 -20 -97 -45 -51 -25 -101 -45 -111 -45 -20 0 -39 39 -80 165 -113 343 -133 699 -60 1045 18 85 20 90 36 90 7 0 84 -20 172 -44z m3768 -383 c4 -43 3 -139 -3 -213 -18 -275 -97 -554 -220 -787 -45 -85 -119 -203 -126 -203 -4 0 -300 213 -542 391 -101 74 -217 159 -259 189 -52 37 -77 63 -80 79 -3 20 -1 22 12 11 9 -7 19 -10 22 -6 4 4 1 11 -7 16 -11 7 -12 11 0 25 10 13 15 13 21 3 6 -9 9 -5 9 12 0 19 2 22 10 10 7 -11 11 -9 20 14 6 16 24 41 41 57 16 15 32 39 35 53 2 13 24 44 48 69 24 25 50 59 57 76 8 17 20 31 26 31 7 0 13 9 13 20 0 10 8 23 17 29 10 5 15 12 11 16 -3 3 12 25 34 47 l40 40 -36 -4 c-20 -2 -36 -1 -36 3 0 4 39 10 88 13 48 4 103 11 122 16 19 5 118 17 220 26 102 8 230 21 285 28 55 8 116 14 136 15 l36 1 6 -77z m-1156 -310 c-4 -3 -7 0 -7 7 0 7 3 10 7 7 3 -4 3 -10 0 -14z m70 -40 c-4 -3 -10 -3 -14 0 -3 4 0 7 7 7 7 0 10 -3 7 -7z m-107 -73 c0 -5 -5 -10 -11 -10 -5 0 -7 5 -4 10 3 6 8 10 11 10 2 0 4 -4 4 -10z m-1531 -46 c20 -44 120 -172 164 -210 37 -31 118 -87 171 -119 15 -9 -1 -48 -143 -338 -89 -180 -161 -332 -161 -337 0 -6 -2 -10 -5 -10 -26 0 -219 117 -283 172 -137 118 -164 144 -216 206 -77 93 -127 166 -181 266 l-46 84 58 27 c32 15 112 51 178 81 66 30 190 88 275 129 85 40 160 74 166 74 6 1 16 -11 23 -25z m1486 -74 c3 -5 2 -10 -4 -10 -5 0 -13 5 -16 10 -3 6 -2 10 4 10 5 0 13 -4 16 -10z m32 -139 c185 -134 510 -366 771 -551 144 -102 261 -190 262 -195 0 -20 -134 -180 -234 -280 -247 -246 -539 -424 -876 -534 -52 -18 -99 -30 -106 -27 -6 2 -14 17 -17 33 -3 15 -16 71 -30 123 -14 52 -41 156 -61 230 -20 74 -50 187 -66 250 -17 63 -47 176 -66 250 -19 74 -44 167 -54 205 -10 39 -29 113 -43 165 -13 52 -27 105 -31 118 -6 16 -3 24 11 28 145 51 278 130 358 213 32 33 56 50 67 48 9 -3 61 -37 115 -76z m-1007 -192 c58 -16 103 -21 199 -21 68 1 136 4 151 7 23 5 29 2 34 -17 15 -52 99 -375 103 -398 2 -14 8 -34 13 -45 4 -11 15 -51 24 -90 9 -38 32 -131 52 -205 20 -74 39 -151 44 -170 4 -19 35 -143 69 -275 109 -420 121 -468 118 -471 -7 -8 -174 -44 -262 -58 -206 -32 -386 -32 -700 0 -54 6 -238 45 -320 68 -154 44 -375 133 -375 151 0 6 48 112 106 236 58 123 143 303 189 399 45 96 144 306 220 465 75 160 155 328 176 374 35 75 41 83 61 77 13 -4 57 -16 98 -27z"/>
</g>
<g id="layer117" fill="#fdb514" stroke="none">
<path d="M0 2515 l0 -2515 2425 0 2425 0 0 2515 0 2515 -2425 0 -2425 0 0 -2515z m1260 1897 c141 -206 272 -395 599 -870 l161 -233 -33 -29 c-17 -16 -35 -30 -39 -30 -21 -1 -144 -165 -183 -243 -25 -49 -47 -92 -50 -97 -3 -4 -26 -1 -52 7 -53 17 -527 150 -993 279 -168 46 -325 91 -350 98 -25 8 -66 20 -92 27 -27 7 -48 17 -48 21 0 14 57 171 99 275 107 259 284 526 495 741 86 89 313 275 329 269 6 -2 77 -99 157 -215z m-525 -1306 c906 -246 949 -258 958 -266 4 -4 3 -29 -3 -56 -19 -84 -14 -229 10 -324 36 -137 36 -133 -2 -149 -18 -8 -75 -34 -126 -58 -51 -23 -95 -43 -97 -43 -2 0 -43 -18 -92 -41 -48 -22 -108 -50 -133 -61 -25 -11 -78 -36 -118 -54 -41 -19 -75 -34 -77 -34 -2 0 -43 -18 -90 -40 -47 -22 -88 -40 -90 -40 -2 0 -45 -20 -97 -45 -51 -25 -101 -45 -111 -45 -20 0 -39 39 -80 165 -113 343 -133 699 -60 1045 18 85 20 90 36 90 7 0 84 -20 172 -44z m3772 -493 c-7 -270 -54 -495 -152 -734 -67 -164 -185 -365 -209 -356 -7 3 -64 42 -127 88 -63 46 -152 111 -199 145 -47 34 -107 77 -135 96 -72 50 -416 297 -442 318 l-23 18 40 68 c60 102 91 209 98 332 4 94 6 103 26 106 19 4 222 25 616 62 85 8 205 21 265 28 61 7 141 14 179 15 l69 1 -6 -187z m-2708 -388 c44 -77 160 -196 250 -256 42 -28 77 -52 79 -54 2 -1 -54 -119 -123 -261 -69 -143 -142 -294 -162 -336 -20 -43 -41 -78 -46 -78 -19 0 -172 91 -243 143 -106 79 -264 241 -336 347 -85 122 -143 229 -132 240 5 5 74 38 154 75 332 152 476 219 485 227 22 19 44 6 74 -47z m1498 -184 c185 -134 510 -366 771 -551 144 -102 261 -190 262 -195 0 -20 -134 -180 -234 -280 -247 -246 -539 -424 -876 -534 -52 -18 -99 -30 -106 -27 -6 2 -14 17 -17 33 -3 15 -16 71 -30 123 -14 52 -41 156 -61 230 -20 74 -50 187 -66 250 -17 63 -47 176 -66 250 -19 74 -44 167 -54 205 -10 39 -29 113 -43 165 -13 52 -27 105 -31 118 -6 16 -3 24 11 28 145 51 278 130 358 213 32 33 56 50 67 48 9 -3 61 -37 115 -76z m-1007 -192 c58 -16 103 -21 199 -21 68 1 136 4 151 7 23 5 29 2 34 -17 15 -52 99 -375 103 -398 2 -14 8 -34 13 -45 4 -11 15 -51 24 -90 9 -38 32 -131 52 -205 20 -74 39 -151 44 -170 6 -29 80 -319 160 -625 34 -131 34 -121 -8 -133 -114 -34 -299 -60 -477 -68 -135 -6 -210 -2 -450 22 -54 6 -238 45 -320 68 -154 44 -375 133 -375 151 0 6 48 112 106 236 58 123 143 303 189 399 45 96 144 306 220 465 75 160 155 328 176 374 35 75 41 83 61 77 13 -4 57 -16 98 -27z"/>
</g>
<g id="layer118" fill="#ffc40d" stroke="none">
<path d="M0 2515 l0 -2515 2425 0 2425 0 0 2515 0 2515 -2425 0 -2425 0 0 -2515z m2568 2380 c5 -4 8 -91 16 -380 4 -110 9 -261 12 -335 5 -106 4 -133 -6 -124 -12 12 -15 43 -8 74 1 8 -1 15 -7 15 -5 0 -9 -8 -8 -17 2 -11 -4 -18 -13 -18 -10 0 -14 -6 -10 -15 4 -12 -4 -15 -43 -15 -27 0 -51 -5 -53 -11 -2 -6 -46 -13 -106 -16 -91 -5 -102 -8 -102 -24 0 -16 -8 -19 -55 -19 -42 0 -55 -3 -55 -15 0 -11 -12 -15 -50 -15 -36 0 -50 -4 -50 -14 0 -24 -185 -37 -208 -14 -6 6 -15 8 -19 4 -5 -4 0 -14 11 -21 18 -13 18 -15 -3 -41 -11 -15 -21 -37 -21 -49 0 -24 -22 -49 -33 -38 -11 11 -8 25 4 17 8 -5 10 3 7 26 -3 21 0 34 9 37 18 7 16 33 -4 49 -21 16 -67 19 -58 4 4 -6 14 -9 23 -8 11 2 18 -5 20 -19 4 -25 -7 -30 -26 -11 -10 10 -15 10 -21 -1 -6 -9 -11 -10 -15 -2 -4 6 -3 11 3 11 6 0 8 7 4 16 -4 11 -8 12 -13 4 -5 -9 -9 -9 -14 -1 -4 6 -4 16 0 23 4 6 3 8 -3 5 -11 -7 -406 564 -411 595 -2 10 1 18 7 18 5 0 16 6 23 13 46 44 318 181 448 225 235 79 403 104 665 96 87 -3 161 -7 163 -9z m-1308 -483 c141 -206 272 -395 599 -870 l161 -233 -33 -29 c-17 -16 -35 -30 -39 -30 -21 -1 -144 -165 -183 -243 -25 -49 -47 -92 -50 -97 -3 -4 -26 -1 -52 7 -53 17 -527 150 -993 279 -168 46 -325 91 -350 98 -25 8 -66 20 -92 27 -27 7 -48 17 -48 21 0 14 57 171 99 275 107 259 284 526 495 741 86 89 313 275 329 269 6 -2 77 -99 157 -215z m1310 -377 c0 -14 -4 -25 -10 -25 -5 0 -10 11 -10 25 0 14 5 25 10 25 6 0 10 -11 10 -25z m17 -137 c-3 -7 -5 -2 -5 12 0 14 2 19 5 13 2 -7 2 -19 0 -25z m-852 -28 c3 -5 2 -10 -4 -10 -5 0 -13 5 -16 10 -3 6 -2 10 4 10 5 0 13 -4 16 -10z m95 -30 c0 -22 -4 -40 -9 -40 -8 0 -9 61 -2 78 5 13 11 -6 11 -38z m20 -110 c0 -5 -9 -6 -19 -3 -12 3 -17 11 -14 19 4 11 9 12 19 3 8 -6 14 -15 14 -19z m27 -17 c-4 -3 -7 0 -7 7 0 7 3 10 7 7 3 -4 3 -10 0 -14z m-26 -26 c-10 -9 -11 -8 -5 6 3 10 9 15 12 12 3 -3 0 -11 -7 -18z m39 -11 c0 -2 -7 -9 -15 -16 -13 -11 -14 -10 -9 4 5 14 24 23 24 12z m-1155 -570 c906 -246 949 -258 958 -266 4 -4 3 -29 -3 -56 -19 -84 -14 -229 10 -324 36 -137 36 -133 -2 -149 -18 -8 -75 -34 -126 -58 -51 -23 -95 -43 -97 -43 -2 0 -43 -18 -92 -41 -48 -22 -108 -50 -133 -61 -25 -11 -78 -36 -118 -54 -41 -19 -75 -34 -77 -34 -2 0 -43 -18 -90 -40 -47 -22 -88 -40 -90 -40 -2 0 -45 -20 -97 -45 -51 -25 -101 -45 -111 -45 -20 0 -39 39 -80 165 -113 343 -133 699 -60 1045 18 85 20 90 36 90 7 0 84 -20 172 -44z m3772 -493 c-7 -270 -54 -495 -152 -734 -67 -164 -185 -365 -209 -356 -7 3 -64 42 -127 88 -63 46 -152 111 -199 145 -47 34 -107 77 -135 96 -72 50 -416 297 -442 318 l-23 18 40 68 c60 102 91 209 98 332 4 94 6 103 26 106 19 4 222 25 616 62 85 8 205 21 265 28 61 7 141 14 179 15 l69 1 -6 -187z m-2708 -388 c44 -77 160 -196 250 -256 42 -28 77 -52 79 -54 2 -1 -54 -119 -123 -261 -69 -143 -142 -294 -162 -336 -20 -43 -41 -78 -46 -78 -19 0 -172 91 -243 143 -106 79 -264 241 -336 347 -85 122 -143 229 -132 240 5 5 74 38 154 75 332 152 476 219 485 227 22 19 44 6 74 -47z m1498 -184 c185 -134 510 -366 771 -551 144 -102 261 -190 262 -195 0 -20 -134 -180 -234 -280 -247 -246 -539 -424 -876 -534 -52 -18 -99 -30 -106 -27 -6 2 -14 17 -17 33 -3 15 -16 71 -30 123 -14 52 -41 156 -61 230 -20 74 -50 187 -66 250 -17 63 -47 176 -66 250 -19 74 -44 167 -54 205 -10 39 -29 113 -43 165 -13 52 -27 105 -31 118 -6 16 -3 24 11 28 145 51 278 130 358 213 32 33 56 50 67 48 9 -3 61 -37 115 -76z m-1007 -192 c58 -16 103 -21 199 -21 68 1 136 4 151 7 23 5 29 2 34 -17 15 -52 99 -375 103 -398 2 -14 8 -34 13 -45 4 -11 15 -51 24 -90 9 -38 32 -131 52 -205 20 -74 39 -151 44 -170 6 -29 80 -319 160 -625 34 -131 34 -121 -8 -133 -114 -34 -299 -60 -477 -68 -135 -6 -210 -2 -450 22 -54 6 -238 45 -320 68 -154 44 -375 133 -375 151 0 6 48 112 106 236 58 123 143 303 189 399 45 96 144 306 220 465 75 160 155 328 176 374 35 75 41 83 61 77 13 -4 57 -16 98 -27z"/>
<path d="M2560 4240 c0 -7 3 -10 7 -7 3 4 3 10 0 14 -4 3 -7 0 -7 -7z"/>
<path d="M1671 4014 c0 -11 3 -14 6 -6 3 7 2 16 -1 19 -3 4 -6 -2 -5 -13z"/>
</g>
<g id="layer119" fill="#ffffff" stroke="none">
<path d="M0 2515 l0 -2515 2425 0 2425 0 0 2515 0 2515 -2425 0 -2425 0 0 -2515z m2568 2380 c2 -2 6 -48 8 -102 7 -218 14 -445 24 -783 5 -195 12 -396 15 -445 l5 -91 -142 -12 c-154 -12 -232 -32 -335 -83 -55 -27 -66 -30 -77 -18 -7 8 -65 91 -128 184 -64 94 -242 356 -397 583 -154 228 -281 420 -281 428 0 8 4 14 9 14 5 0 16 6 23 13 46 44 318 181 448 225 235 79 403 104 665 96 87 -3 161 -7 163 -9z m-1308 -483 c141 -206 272 -395 599 -870 l161 -233 -33 -29 c-17 -16 -35 -30 -39 -30 -21 -1 -144 -165 -183 -243 -25 -49 -47 -92 -50 -97 -3 -4 -26 -1 -52 7 -53 17 -527 150 -993 279 -168 46 -325 91 -350 98 -25 8 -66 20 -92 27 -27 7 -48 17 -48 21 0 14 57 171 99 275 107 259 284 526 495 741 86 89 313 275 329 269 6 -2 77 -99 157 -215z m-525 -1306 c906 -246 949 -258 958 -266 4 -4 3 -29 -3 -56 -19 -84 -14 -229 10 -324 36 -137 36 -133 -2 -149 -18 -8 -75 -34 -126 -58 -51 -23 -95 -43 -97 -43 -2 0 -43 -18 -92 -41 -48 -22 -108 -50 -133 -61 -25 -11 -78 -36 -118 -54 -41 -19 -75 -34 -77 -34 -2 0 -43 -18 -90 -40 -47 -22 -88 -40 -90 -40 -2 0 -45 -20 -97 -45 -51 -25 -101 -45 -111 -45 -20 0 -39 39 -80 165 -113 343 -133 699 -60 1045 18 85 20 90 36 90 7 0 84 -20 172 -44z m3772 -493 c-7 -270 -54 -495 -152 -734 -67 -164 -185 -365 -209 -356 -7 3 -64 42 -127 88 -63 46 -152 111 -199 145 -47 34 -107 77 -135 96 -72 50 -416 297 -442 318 l-23 18 40 68 c60 102 91 209 98 332 4 94 6 103 26 106 19 4 222 25 616 62 85 8 205 21 265 28 61 7 141 14 179 15 l69 1 -6 -187z m-2708 -388 c44 -77 160 -196 250 -256 42 -28 77 -52 79 -54 2 -1 -54 -119 -123 -261 -69 -143 -142 -294 -162 -336 -20 -43 -41 -78 -46 -78 -19 0 -172 91 -243 143 -106 79 -264 241 -336 347 -85 122 -143 229 -132 240 5 5 74 38 154 75 332 152 476 219 485 227 22 19 44 6 74 -47z m1498 -184 c185 -134 510 -366 771 -551 144 -102 261 -190 262 -195 0 -20 -134 -180 -234 -280 -247 -246 -539 -424 -876 -534 -52 -18 -99 -30 -106 -27 -6 2 -14 17 -17 33 -3 15 -16 71 -30 123 -14 52 -41 156 -61 230 -20 74 -50 187 -66 250 -17 63 -47 176 -66 250 -19 74 -44 167 -54 205 -10 39 -29 113 -43 165 -13 52 -27 105 -31 118 -6 16 -3 24 11 28 145 51 278 130 358 213 32 33 56 50 67 48 9 -3 61 -37 115 -76z m-1007 -192 c58 -16 103 -21 199 -21 68 1 136 4 151 7 23 5 29 2 34 -17 15 -52 99 -375 103 -398 2 -14 8 -34 13 -45 4 -11 15 -51 24 -90 9 -38 32 -131 52 -205 20 -74 39 -151 44 -170 6 -29 80 -319 160 -625 34 -131 34 -121 -8 -133 -114 -34 -299 -60 -477 -68 -135 -6 -210 -2 -450 22 -54 6 -238 45 -320 68 -154 44 -375 133 -375 151 0 6 48 112 106 236 58 123 143 303 189 399 45 96 144 306 220 465 75 160 155 328 176 374 35 75 41 83 61 77 13 -4 57 -16 98 -27z"/>
</g>


</svg>